<?xml version="1.0" encoding="utf-8"?><svg xmlns="http://www.w3.org/2000/svg" xmlns:xlink="http://www.w3.org/1999/xlink"><symbol fill="none" viewBox="0 0 261 54" id="logo-img" xmlns="http://www.w3.org/2000/svg"><rect width="261" height="54" rx="15" fill="#F0BF5F"/><path d="M30.946 29.68c0 .728.056 1.26.168 1.596.112.308.322.518.63.63.336.112.868.168 1.596.168h1.428c2.184 0 4.074-.574 5.67-1.722 1.596-1.176 2.66-2.758 3.192-4.746 0-.056.056-.084.168-.084.056 0 .112.028.168.084.084.028.126.056.126.084-.252 2.772-.378 5.082-.378 6.93 0 .224-.056.392-.168.504-.084.084-.238.126-.462.126H23.26c-.056 0-.084-.084-.084-.252 0-.168.028-.252.084-.252.896 0 1.54-.07 1.932-.21.42-.14.7-.406.84-.798.168-.42.252-1.05.252-1.89V10.402c0-.84-.084-1.456-.252-1.848-.14-.392-.42-.658-.84-.798-.42-.168-1.064-.252-1.932-.252-.056 0-.084-.084-.084-.252 0-.168.028-.252.084-.252l2.142.042c1.288.056 2.352.084 3.192.084.84 0 1.904-.028 3.192-.084L33.928 7c.084 0 .126.084.126.252 0 .168-.042.252-.126.252-.868 0-1.512.084-1.932.252-.42.14-.7.42-.84.84-.14.392-.21 1.008-.21 1.848V29.68ZM62.485 30.982c.112 0 .182.07.21.21.056.112.028.196-.084.252l-4.326 2.058a.935.935 0 0 1-.42.084c-.448 0-.882-.238-1.302-.714-.392-.476-.672-1.12-.84-1.932l-1.806 1.26c-.644.476-1.246.826-1.806 1.05-.56.196-1.19.294-1.89.294-1.204 0-2.114-.266-2.73-.798-.616-.532-.924-1.274-.924-2.226 0-.756.182-1.358.546-1.806.364-.476.812-.84 1.344-1.092.56-.28 1.33-.588 2.31-.924l1.05-.378 3.78-1.386V22.54c0-1.792-.154-3.094-.462-3.906-.28-.812-.77-1.218-1.47-1.218-1.484 0-2.324 1.148-2.52 3.444-.084.84-.336 1.442-.756 1.806-.392.364-.952.546-1.68.546-.7 0-1.218-.14-1.554-.42-.308-.308-.462-.7-.462-1.176 0-.84.49-1.638 1.47-2.394.98-.784 2.156-1.414 3.528-1.89 1.4-.476 2.632-.714 3.696-.714 1.232 0 2.226.392 2.982 1.176.784.756 1.176 1.918 1.176 3.486v7.434c0 .812.14 1.442.42 1.89.308.448.728.672 1.26.672.392 0 .798-.098 1.218-.294h.042Zm-6.846-.756a2.502 2.502 0 0 1-.042-.546v-4.032l-1.806.84c-.084.028-.364.14-.84.336a2.962 2.962 0 0 0-1.26.882c-.336.42-.504.91-.504 1.47 0 .672.21 1.204.63 1.596.448.364.952.546 1.512.546.448 0 .91-.154 1.386-.462l.924-.63ZM73.064 31.528c1.653.028 2.997.126 4.033.294 1.064.168 1.946.588 2.646 1.26.728.644 1.092 1.638 1.092 2.982 0 1.568-.49 3.038-1.47 4.41-.953 1.4-2.254 2.52-3.906 3.36-1.624.84-3.374 1.26-5.25 1.26-1.933 0-3.514-.448-4.746-1.344-1.232-.868-1.848-2.016-1.848-3.444 0-1.96 1.413-3.864 4.241-5.712-2.015-.392-3.023-1.4-3.023-3.024 0-1.736.98-3.262 2.94-4.578-1.064-.504-1.904-1.204-2.52-2.1-.588-.924-.882-1.89-.882-2.898 0-1.12.364-2.072 1.092-2.856.728-.784 1.652-1.372 2.772-1.764 1.147-.42 2.31-.63 3.486-.63 1.763 0 3.275.448 4.535 1.344 1.457-.98 2.969-1.47 4.537-1.47.223 0 .335.392.335 1.176 0 .42-.055.868-.168 1.344-.111.448-.223.63-.335.546-1.148-.476-2.184-.714-3.109-.714h-.336c.756.896 1.134 1.904 1.134 3.024s-.363 2.114-1.091 2.982c-.728.868-1.666 1.54-2.814 2.016a9.303 9.303 0 0 1-3.487.672 7.276 7.276 0 0 1-2.394-.378c-.448.476-.672 1.078-.672 1.806 0 .756.197 1.302.589 1.638.42.336.966.546 1.638.63.671.084 1.666.14 2.981.168Zm-2.73-13.986c-1.26 0-1.89 1.064-1.89 3.192 0 1.176.168 2.24.504 3.192.337.924.77 1.652 1.303 2.184.56.532 1.147.798 1.763.798.617 0 1.135-.308 1.555-.924.42-.616.63-1.554.63-2.814 0-1.204-.197-2.226-.588-3.066-.392-.868-.897-1.512-1.513-1.932-.588-.42-1.175-.63-1.763-.63Zm2.394 26.208c1.428 0 2.563-.448 3.403-1.344.84-.896 1.26-2.114 1.26-3.654 0-1.204-.267-2.086-.799-2.646-.504-.532-1.175-.868-2.016-1.008-.811-.112-2.001-.182-3.57-.21-.252 0-.602-.014-1.05-.042a41.324 41.324 0 0 1-1.133-.084c-.952.7-1.428 1.82-1.428 3.36 0 1.792.517 3.178 1.553 4.158 1.065.98 2.325 1.47 3.78 1.47ZM90.975 33.796c-1.735 0-3.261-.392-4.578-1.176a8.284 8.284 0 0 1-2.982-3.234c-.7-1.372-1.05-2.856-1.05-4.452 0-1.82.463-3.36 1.386-4.62a8.339 8.339 0 0 1 3.528-2.856 10.62 10.62 0 0 1 4.41-.966c1.737 0 3.249.406 4.537 1.218a7.978 7.978 0 0 1 2.94 3.234 8.898 8.898 0 0 1 1.05 4.242c0 1.68-.42 3.178-1.26 4.494-.84 1.288-1.975 2.296-3.403 3.024-1.4.728-2.925 1.092-4.578 1.092Zm1.26-.882c1.093 0 1.918-.532 2.478-1.596.589-1.092.883-2.646.883-4.662 0-1.96-.252-3.64-.757-5.04-.504-1.4-1.162-2.45-1.974-3.15-.811-.728-1.68-1.092-2.603-1.092-2.24 0-3.36 2.002-3.36 6.006 0 1.876.237 3.542.713 4.998.477 1.428 1.12 2.548 1.933 3.36.811.784 1.707 1.176 2.688 1.176ZM111.524 33.796c-1.736 0-3.262-.392-4.578-1.176a8.284 8.284 0 0 1-2.982-3.234c-.7-1.372-1.05-2.856-1.05-4.452 0-1.82.462-3.36 1.386-4.62a8.339 8.339 0 0 1 3.528-2.856 10.62 10.62 0 0 1 4.41-.966c1.736 0 3.248.406 4.536 1.218a7.978 7.978 0 0 1 2.94 3.234 8.897 8.897 0 0 1 1.05 4.242c0 1.68-.42 3.178-1.26 4.494-.84 1.288-1.974 2.296-3.402 3.024-1.4.728-2.926 1.092-4.578 1.092Zm1.26-.882c1.092 0 1.918-.532 2.478-1.596.588-1.092.882-2.646.882-4.662 0-1.96-.252-3.64-.756-5.04s-1.162-2.45-1.974-3.15c-.812-.728-1.68-1.092-2.604-1.092-2.24 0-3.36 2.002-3.36 6.006 0 1.876.238 3.542.714 4.998.476 1.428 1.12 2.548 1.932 3.36.812.784 1.708 1.176 2.688 1.176ZM143.497 32.746c.084 0 .126.084.126.252 0 .168-.042.252-.126.252-.728 0-1.302-.014-1.722-.042l-2.52-.042-2.436.042a29.53 29.53 0 0 1-1.764.042c-.084 0-.126-.084-.126-.252 0-.168.042-.252.126-.252.868 0 1.456-.196 1.764-.588.308-.42.462-1.19.462-2.31V23.8c0-1.512-.28-2.632-.84-3.36-.532-.728-1.386-1.092-2.562-1.092-.672 0-1.372.14-2.1.42-.7.28-1.316.658-1.848 1.134v8.946c0 1.12.154 1.89.462 2.31.336.392.938.588 1.806.588.084 0 .126.084.126.252 0 .168-.042.252-.126.252-.728 0-1.302-.014-1.722-.042l-2.52-.042-2.478.042c-.42.028-.994.042-1.722.042-.084 0-.126-.084-.126-.252 0-.168.042-.252.126-.252.868 0 1.456-.196 1.764-.588.308-.42.462-1.19.462-2.31v-7.896c0-.868-.112-1.498-.336-1.89-.196-.42-.518-.63-.966-.63-.476 0-1.148.196-2.016.588h-.084c-.084 0-.154-.07-.21-.21-.028-.14-.014-.224.042-.252l5.838-2.856c.168-.056.266-.084.294-.084.308 0 .602.308.882.924.28.588.448 1.4.504 2.436 1.932-2.296 4.06-3.444 6.384-3.444 1.512 0 2.702.49 3.57 1.47.896.952 1.344 2.212 1.344 3.78v8.064c0 1.12.154 1.89.462 2.31.336.392.938.588 1.806.588ZM161.825 30.982c.112 0 .182.07.21.21.056.112.028.196-.084.252l-4.326 2.058a.935.935 0 0 1-.42.084c-.448 0-.882-.238-1.302-.714-.392-.476-.672-1.12-.84-1.932l-1.806 1.26c-.644.476-1.246.826-1.806 1.05-.56.196-1.19.294-1.89.294-1.204 0-2.114-.266-2.73-.798-.616-.532-.924-1.274-.924-2.226 0-.756.182-1.358.546-1.806.364-.476.812-.84 1.344-1.092.56-.28 1.33-.588 2.31-.924l1.05-.378 3.78-1.386V22.54c0-1.792-.154-3.094-.462-3.906-.28-.812-.77-1.218-1.47-1.218-1.484 0-2.324 1.148-2.52 3.444-.084.84-.336 1.442-.756 1.806-.392.364-.952.546-1.68.546-.7 0-1.218-.14-1.554-.42-.308-.308-.462-.7-.462-1.176 0-.84.49-1.638 1.47-2.394.98-.784 2.156-1.414 3.528-1.89 1.4-.476 2.632-.714 3.696-.714 1.232 0 2.226.392 2.982 1.176.784.756 1.176 1.918 1.176 3.486v7.434c0 .812.14 1.442.42 1.89.308.448.728.672 1.26.672.392 0 .798-.098 1.218-.294h.042Zm-6.846-.756a2.502 2.502 0 0 1-.042-.546v-4.032l-1.806.84c-.084.028-.364.14-.84.336a2.962 2.962 0 0 0-1.26.882c-.336.42-.504.91-.504 1.47 0 .672.21 1.204.63 1.596.448.364.952.546 1.512.546.448 0 .91-.154 1.386-.462l.924-.63ZM93.51 46.43c-.66 0-1.22-.14-1.68-.42-.45-.29-.79-.66-1.02-1.11-.22-.46-.33-.94-.33-1.44 0-.63.175-1.18.525-1.65.35-.48.795-.845 1.335-1.095.55-.26 1.11-.39 1.68-.39.48 0 .91.1 1.29.3.39.2.585.475.585.825 0 .19-.075.355-.225.495-.14.13-.34.195-.6.195-.24 0-.43-.06-.57-.18-.14-.13-.255-.325-.345-.585-.09-.28-.18-.47-.27-.57-.08-.11-.23-.165-.45-.165-.43 0-.775.215-1.035.645-.25.42-.375.98-.375 1.68 0 .83.185 1.495.555 1.995.37.49.96.735 1.77.735.27 0 .5-.03.69-.09.2-.06.45-.16.75-.3h.015c.03 0 .055.015.075.045.03.03.035.055.015.075-.37.34-.74.595-1.11.765-.37.16-.795.24-1.275.24ZM102.104 45.26c.02 0 .04.02.06.06.03.04.035.07.015.09-.37.36-.745.62-1.125.78-.38.16-.795.24-1.245.24-.63 0-1.175-.13-1.635-.39-.46-.27-.81-.625-1.05-1.065-.24-.45-.36-.935-.36-1.455 0-.58.145-1.115.435-1.605a3.1 3.1 0 0 1 1.2-1.155 3.54 3.54 0 0 1 1.755-.435c.62 0 1.1.14 1.44.42.34.28.51.715.51 1.305 0 .31-.055.465-.165.465l-3.645.015c-.01.07-.015.185-.015.345 0 .88.2 1.57.6 2.07.41.5.995.75 1.755.75.27 0 .5-.03.69-.09.19-.06.44-.17.75-.33l.03-.015Zm-2.52-4.635c-.33 0-.605.145-.825.435-.22.28-.365.67-.435 1.17l2.175-.03c-.01-.51-.085-.9-.225-1.17-.14-.27-.37-.405-.69-.405ZM104.204 46.25c-.03 0-.045-.03-.045-.09s.015-.09.045-.09c.24 0 .415-.025.525-.075a.41.41 0 0 0 .24-.285c.04-.15.06-.375.06-.675v-3.33c0-.35-.03-.59-.09-.72-.05-.13-.155-.195-.315-.195-.29 0-.575.155-.855.465-.27.31-.465.695-.585 1.155-.01.02-.045.03-.105.03-.05 0-.075-.01-.075-.03l-.03-.975c-.02-.4-.03-.685-.03-.855 0-.06.005-.095.015-.105.01-.02.045-.03.105-.03.21 0 .395.005.555.015l2.07.015 2.115-.015c.17-.01.365-.015.585-.015.07 0 .11.01.12.03.01.01.015.045.015.105-.05 1-.075 1.61-.075 1.83 0 .02-.03.03-.09.03-.05 0-.08-.01-.09-.03-.12-.46-.32-.845-.6-1.155-.27-.31-.55-.465-.84-.465-.16 0-.27.065-.33.195-.05.13-.075.37-.075.72v3.33c0 .3.02.525.06.675.04.14.115.235.225.285.12.05.295.075.525.075.03 0 .045.03.045.09s-.015.09-.045.09c-.28 0-.495-.005-.645-.015l-.84-.015-.87.015c-.16.01-.385.015-.675.015ZM112.812 42.815c1.54 0 2.31.52 2.31 1.56 0 .57-.22 1.03-.66 1.38-.43.35-.995.525-1.695.525l-.81-.03c-.48-.02-.825-.03-1.035-.03l-.87.015c-.16.01-.385.015-.675.015-.03 0-.045-.03-.045-.09s.015-.09.045-.09c.24 0 .415-.025.525-.075a.41.41 0 0 0 .24-.285c.04-.15.06-.375.06-.675v-3.36c0-.3-.02-.52-.06-.66-.04-.15-.12-.25-.24-.3-.11-.05-.28-.075-.51-.075-.03 0-.045-.03-.045-.09s.015-.09.045-.09c.28 0 .495.005.645.015l.885.015.93-.015c.18-.01.425-.015.735-.015.02 0 .03.03.03.09s-.01.09-.03.09c-.29 0-.505.03-.645.09a.503.503 0 0 0-.27.315c-.05.14-.075.36-.075.66v1.245c.37-.09.775-.135 1.215-.135Zm-.36 3.24c.4 0 .695-.105.885-.315.19-.22.285-.565.285-1.035 0-1.04-.45-1.56-1.35-1.56-.21 0-.435.03-.675.09v1.8c0 .36.06.62.18.78.12.16.345.24.675.24ZM122.486 46.445c-.62 0-1.165-.14-1.635-.42a2.958 2.958 0 0 1-1.065-1.155 3.448 3.448 0 0 1-.375-1.59c0-.65.165-1.2.495-1.65.33-.46.75-.8 1.26-1.02a3.793 3.793 0 0 1 1.575-.345c.62 0 1.16.145 1.62.435.46.29.81.675 1.05 1.155.25.47.375.975.375 1.515 0 .6-.15 1.135-.45 1.605-.3.46-.705.82-1.215 1.08-.5.26-1.045.39-1.635.39Zm.45-.315c.39 0 .685-.19.885-.57.21-.39.315-.945.315-1.665 0-.7-.09-1.3-.27-1.8-.18-.5-.415-.875-.705-1.125-.29-.26-.6-.39-.93-.39-.8 0-1.2.715-1.2 2.145 0 .67.085 1.265.255 1.785.17.51.4.91.69 1.2.29.28.61.42.96.42ZM127.92 46.25c-.03 0-.045-.03-.045-.09s.015-.09.045-.09c.24 0 .415-.025.525-.075a.41.41 0 0 0 .24-.285c.04-.15.06-.375.06-.675v-3.33c0-.35-.03-.59-.09-.72-.05-.13-.155-.195-.315-.195-.29 0-.575.155-.855.465-.27.31-.465.695-.585 1.155-.01.02-.045.03-.105.03-.05 0-.075-.01-.075-.03l-.03-.975c-.02-.4-.03-.685-.03-.855 0-.06.005-.095.015-.105.01-.02.045-.03.105-.03.21 0 .395.005.555.015l2.07.015 2.115-.015c.17-.01.365-.015.585-.015.07 0 .11.01.12.03.01.01.015.045.015.105-.05 1-.075 1.61-.075 1.83 0 .02-.03.03-.09.03-.05 0-.08-.01-.09-.03-.12-.46-.32-.845-.6-1.155-.27-.31-.55-.465-.84-.465-.16 0-.27.065-.33.195-.05.13-.075.37-.075.72v3.33c0 .3.02.525.06.675.04.14.115.235.225.285.12.05.295.075.525.075.03 0 .045.03.045.09s-.015.09-.045.09c-.28 0-.495-.005-.645-.015l-.84-.015-.87.015c-.16.01-.385.015-.675.015ZM138.432 45.26c.02 0 .04.02.06.06.03.04.035.07.015.09-.37.36-.745.62-1.125.78-.38.16-.795.24-1.245.24-.63 0-1.175-.13-1.635-.39-.46-.27-.81-.625-1.05-1.065-.24-.45-.36-.935-.36-1.455 0-.58.145-1.115.435-1.605a3.1 3.1 0 0 1 1.2-1.155 3.541 3.541 0 0 1 1.755-.435c.62 0 1.1.14 1.44.42.34.28.51.715.51 1.305 0 .31-.055.465-.165.465l-3.645.015c-.01.07-.015.185-.015.345 0 .88.2 1.57.6 2.07.41.5.995.75 1.755.75.27 0 .5-.03.69-.09.19-.06.44-.17.75-.33l.03-.015Zm-2.52-4.635c-.33 0-.605.145-.825.435-.22.28-.365.67-.435 1.17l2.175-.03c-.01-.51-.085-.9-.225-1.17-.14-.27-.37-.405-.69-.405ZM145.482 46.07c.05 0 .075.03.075.09s-.025.09-.075.09c-.18 0-.46-.01-.84-.03-.4-.02-.69-.03-.87-.03-.16 0-.42.01-.78.03-.34.02-.58.03-.72.03-.04 0-.06-.03-.06-.09s.02-.09.06-.09c.22 0 .38-.025.48-.075.1-.06.15-.145.15-.255 0-.08-.03-.185-.09-.315a5.04 5.04 0 0 0-.18-.435l-1.26-2.685-.9 2.1c-.18.42-.27.76-.27 1.02 0 .43.24.645.72.645.05 0 .075.03.075.09s-.025.09-.075.09c-.11 0-.265-.01-.465-.03a5.739 5.739 0 0 0-1.185 0 4.4 4.4 0 0 1-.48.03c-.05 0-.075-.03-.075-.09s.025-.09.075-.09c.18 0 .37-.125.57-.375.21-.26.465-.735.765-1.425l1.74-4.035c.02-.04.05-.06.09-.06.04 0 .07.02.09.06l1.86 3.96c.26.57.46.98.6 1.23.14.24.28.41.42.51.14.09.325.135.555.135ZM150.942 45.26c.02 0 .04.02.06.06.03.04.035.07.015.09-.37.36-.745.62-1.125.78-.38.16-.795.24-1.245.24-.63 0-1.175-.13-1.635-.39-.46-.27-.81-.625-1.05-1.065-.24-.45-.36-.935-.36-1.455 0-.58.145-1.115.435-1.605a3.1 3.1 0 0 1 1.2-1.155 3.541 3.541 0 0 1 1.755-.435c.62 0 1.1.14 1.44.42.34.28.51.715.51 1.305 0 .31-.055.465-.165.465l-3.645.015c-.01.07-.015.185-.015.345 0 .88.2 1.57.6 2.07.41.5.995.75 1.755.75.27 0 .5-.03.69-.09.19-.06.44-.17.75-.33l.03-.015Zm-2.52-4.635c-.33 0-.605.145-.825.435-.22.28-.365.67-.435 1.17l2.175-.03c-.01-.51-.085-.9-.225-1.17-.14-.27-.37-.405-.69-.405ZM155.322 39.215c-.39 0-.76-.065-1.11-.195-.34-.13-.615-.3-.825-.51-.2-.22-.3-.455-.3-.705 0-.18.055-.32.165-.42.11-.11.27-.165.48-.165.19 0 .33.045.42.135.1.08.17.18.21.3.04.11.08.275.12.495.04.26.11.465.21.615.11.14.315.21.615.21s.515-.075.645-.225c.13-.16.215-.38.255-.66.06-.3.13-.52.21-.66.09-.14.255-.21.495-.21.2 0 .355.055.465.165.11.1.165.24.165.42 0 .25-.105.485-.315.705a2.21 2.21 0 0 1-.825.525c-.34.12-.7.18-1.08.18Zm3.48 6.855c.02 0 .03.03.03.09s-.01.09-.03.09c-.29 0-.515-.005-.675-.015l-.825-.015-.885.015c-.16.01-.38.015-.66.015-.02 0-.03-.03-.03-.09s.01-.09.03-.09c.24 0 .415-.025.525-.075a.41.41 0 0 0 .24-.285c.04-.15.06-.375.06-.675v-3l-3.645 4.275c-.03.04-.095.06-.195.06-.05 0-.1-.01-.15-.03-.05-.01-.075-.02-.075-.03v-4.635c0-.3-.02-.52-.06-.66-.04-.15-.115-.25-.225-.3-.11-.05-.285-.075-.525-.075-.02 0-.03-.03-.03-.09s.01-.09.03-.09c.23 0 .405.005.525.015l.96.015 1.215-.015c.09-.01.2-.015.33-.015.03 0 .045.03.045.09s-.015.09-.045.09c-.24 0-.42.025-.54.075-.11.05-.185.15-.225.3-.04.14-.06.36-.06.66v3.03l3.66-4.29c.03-.05.095-.075.195-.075.06 0 .11.01.15.03.05.01.075.025.075.045v4.62c0 .3.02.525.06.675.04.14.115.235.225.285.11.05.285.075.525.075Z" fill="#fff"/><g clip-path="url(#aa)" fill="#A47312"><path d="M190.692 15.872c-.732-.401-1.52-.645-2.31-.915a51.874 51.874 0 0 1-2.992-1.138c-.556-.23-1.105-.45-1.621-.77-.224-.14-.376-.316-.262-.573.121-.276.371-.235.603-.158.164.053.314.206.531.055-.327-.534-.852-.888-1.219-1.377-.368-.489-.603-1.042-.817-1.598-.117-.3-.171-.67.141-.928.344-.285.749-.3 1.134-.118.602.287 1.192.61 1.881.654.161.01.325.094.502-.06-.252-.386-.751-.409-1.046-.714-.16-.165-.542-.225-.368-.55.174-.326.519-.301.804-.15.709.374 1.406.776 2.097 1.176.502.293.987.485 1.501-.014.214-.207.541-.123.823-.14.143-.01.35.05.402-.125.053-.175-.136-.3-.276-.375-.446-.231-.914-.44-1.282-.78-.602-.561-1.319-.96-1.986-1.428-.216-.152-.474-.34-.277-.653.177-.281.446-.21.718-.113.613.219 1.13.61 1.588 1.03.812.743 1.69 1.354 2.707 1.77.233.1.379.34.65.36.129.01.294.059.366-.08.085-.162-.084-.23-.187-.3-.407-.292-.803-.611-1.234-.858-.834-.473-1.551-1.102-2.336-1.64-.502-.345-.918-.775-1.353-1.185-.206-.195-.494-.466-.251-.77s.582-.143.874 0c.321.162.547.44.787.693.674.708 1.484 1.235 2.293 1.766.265.174.489.393.759.566 1.729 1.112 3.609 1.988 5.183 3.343.277.238.635.334 1.089.445-.257-.5-.661-.726-1.011-.97-1.327-.922-2.677-1.812-4.018-2.717a1.585 1.585 0 0 1-.274-.218c-.938-1.002-2.21-1.612-3.114-2.653-.425-.486-1.113-.6-1.571-1.055-.143-.14-.314-.245-.377-.452-.115-.378.061-.617.449-.528.606.136 1.162.44 1.601.88.811.815 1.672 1.573 2.545 2.319.838.717 1.784 1.286 2.684 1.92.775.546 1.556 1.096 2.337 1.622.649.44 1.269.92 1.858 1.437.184.159.396.4.749.393-.062-.321-.308-.477-.495-.626-.535-.425-1.024-.912-1.656-1.21a1.88 1.88 0 0 1-.859-.815c-.107-.2-.162-.372.043-.53.206-.16.411-.213.636-.028.643.53 1.287 1.055 1.934 1.578.114.092.216.214.502.125-.43-.4-.692-.901-1.164-1.158-.941-.515-1.619-1.333-2.43-1.999-.384-.314-.774-.64-1.06-1.062-.084-.124-.201-.254-.094-.407.106-.152.301-.147.455-.065.247.135.521.235.717.451.518.572 1.216.94 1.725 1.523.052.06.119.12.219.062.055-.164-.075-.236-.168-.323-.978-.913-1.993-1.783-2.796-2.864-.326-.437-.871-.662-1.229-1.102a39.769 39.769 0 0 0-1.697-1.904 5.414 5.414 0 0 0-1.293-1.021c-.315-.18-.591-.426-.366-.802.225-.375.551-.187.842-.036.113.06.201.183.402.144-.117-.209-.23-.401-.332-.602-.08-.156-.116-.321.029-.462.146-.14.326-.094.465 0 .207.132.392.301.676.401-.25-.576-.493-1.155-.755-1.725-.068-.15-.18-.277-.22-.445-.183-.76.221-1.166.962-.919.424.141.875.233 1.252.501.24.172.421.144.53-.171.138-.401.402-.434.683-.146.491.498.932 1.041 1.317 1.623.363.55.831.94 1.507 1.085-.714-.745-1.194-1.661-1.866-2.434a3.298 3.298 0 0 1-.546-.836c-.214-.485.01-.801.539-.748.23.025.349.03.341-.244-.008-.273-.026-.582.33-.637a.709.709 0 0 1 .788.419c.362.822.991 1.459 1.47 2.198.703 1.076 1.607 2.004 2.26 3.114.465.795.95 1.568 1.564 2.256.186.208.325.466.621.554.113-.141 0-.234-.064-.314-.55-.701-.95-1.517-1.578-2.167-.484-.5-.703-1.17-1.018-1.771-.534-1.026-1.206-1.96-1.848-2.906-.46-.671-.712-1.477-1.341-2.04a.411.411 0 0 1-.054-.553c.137-.2.367-.2.545-.117.424.2.811.44 1.061.87.93 1.603 1.862 3.197 2.829 4.773.201.333.263.716.489 1.035 1.027 1.447 2.035 2.905 3.063 4.353.295.415.776.658 1.061 1.095-.191-.702-.723-1.194-1.018-1.82-.287-.608-.757-1.093-1.074-1.681-.724-1.347-1.436-2.7-2.209-4.02-.704-1.208-1.481-2.378-2.235-3.56-.165-.257-.32-.51-.334-.822-.009-.19.01-.373.201-.479.191-.106.359-.05.524.043.426.24.558.694.779 1.08 1.012 1.764 2.018 3.53 3.033 5.293.242.42.503.832.658 1.292.239.688.641 1.27 1.074 1.85.376.5.633 1.095.964 1.635.214.35.468.677.744 1.07.163-.39.02-.652-.133-.92-.86-1.503-1.761-2.987-2.56-4.523-.955-1.835-2.027-3.608-2.981-5.438a6.39 6.39 0 0 0-.82-1.134c-.263-.311-.308-.654-.283-1.029.012-.184.009-.381.231-.454.187-.063.319.05.445.165.408.368.64.852.874 1.33.675 1.39 1.534 2.674 2.155 4.077.492 1.113 1.105 2.158 1.749 3.192.27.437.536.879.811 1.316.124.2.221.435.538.472-.301-.413-.439-.914-.763-1.302a2.93 2.93 0 0 1-.497-.86c-.587-1.53-1.421-2.949-2.218-4.365-.649-1.154-1.21-2.361-1.895-3.493a2.59 2.59 0 0 1-.216-.557c-.084-.268-.038-.501.234-.639.272-.137.491-.026.667.179.114.12.204.263.264.418.402 1.252 1.206 2.305 1.73 3.491.516 1.168 1.196 2.257 1.58 3.493.224.722.677 1.373 1.036 2.05a.291.291 0 0 0 .334.17c.167-.037.18-.18.187-.316a.796.796 0 0 0-.128-.526c-.732-1.008-1.088-2.21-1.694-3.28-.832-1.466-1.332-3.097-2.277-4.508-.238-.354-.356-.789-.511-1.194a.514.514 0 0 1 .162-.633c.243-.18.439-.014.624.137.237.191.409.45.493.743.201.722.603 1.371.749 2.116.057.28.264.534.422.787.598.948.915 2.04 1.54 2.972.125.186.196.417.412.55.17-.213.111-.416 0-.576-.752-1.125-1.065-2.443-1.628-3.645-.543-1.16-.826-2.434-1.565-3.507-.172-.25-.165-.559.105-.766.255-.2.502-.085.733.088.359.272.486.665.577 1.08.067.365.184.72.348 1.053.176-.529.336-1.064.535-1.585.249-.652.464-1.322.865-1.904.11-.168.252-.314.419-.427.441-.29.88-.157 1.028.344.161.542.274 1.102.409 1.647.209.848.593 1.615 1.098 2.439a1.86 1.86 0 0 0 .022-1.232c-.258-.811-.552-1.609-.822-2.416a2.136 2.136 0 0 1-.101-.537c-.014-.216-.025-.46.243-.543.247-.078.515-.084.709.112.221.223.423.464.463.807.119 1.01.26 2.019.384 3.029.065.534.343 1.052.069 1.613-.076.157.542 1.06.713 1.102.262.067.217-.138.207-.274-.075-1.037-.377-2.027-.609-3.034-.22-.953-.562-1.873-.703-2.845-.043-.292.041-.501.321-.595.28-.093.475.039.612.295.164.31.261.652.283 1.002.065.989.326 1.934.577 2.887.189.717.402 1.449.331 2.204-.042.454.101.866.241 1.266.285.835.74 1.603.945 2.482.179-.374.038-.697-.072-1.014-.082-.239-.19-.475-.184-.724.028-1.052-.44-2.004-.616-3.006a3.8 3.8 0 0 1-.101-.687c.006-.96-.214-1.872-.496-2.785a4.997 4.997 0 0 1-.186-1.88c.022-.273.147-.55.477-.55.331-.002.471.271.481.546.044 1.184.413 2.32.465 3.513.044 1.022.407 2.02.565 3.045.071.461.055.933.181 1.386.043.158.048.335.242.463a1.7 1.7 0 0 0 .047-1.115c-.423-1.395-.309-2.849-.611-4.253-.2-.954-.183-1.956-.25-2.937-.017-.255.081-.474.384-.486.303-.012.468.163.502.448.139 1.058.244 2.12.409 3.175.174 1.102.046 2.263.351 3.32.273.947-.065 1.883.234 2.8.394 1.208.111 2.527.568 3.735.074.195.046.43.051.646.01.432.18.801.401 1.163.249-.122.192-.328.192-.494 0-.701.024-1.403-.165-2.089-.221-.809-.092-1.652-.175-2.481-.101-.975-.134-1.964-.269-2.935-.309-2.23-.14-4.494-.546-6.713a1.555 1.555 0 0 1 .025-.596c.038-.189.085-.366.326-.377a.43.43 0 0 1 .47.3c.106.314.258.617.236.966-.117 1.888.216 3.76.238 5.647.011.935-.033 1.903.224 2.835.105.41.087.84-.053 1.239-.126.37-.033.727.02 1.088.014.095.04.22.164.214.125-.005.133-.14.146-.231.059-.428.086-.858.118-1.289.086-1.191-.261-2.34-.272-3.523-.009-1.016.031-2.03.029-3.045 0-1.218-.321-2.417-.214-3.642.009-.233.034-.465.073-.694.063-.286.232-.507.561-.447.33.06.467.314.423.635-.09.644-.144 1.293-.161 1.943-.022 1.234.134 2.464.12 3.698-.007.644-.166 1.29.068 1.973.263-.24.352-.543.402-.841.086-.426.128-.859.124-1.293-.077-1.804.223-3.595.111-5.399-.017-.275-.115-.726.279-.746.393-.02.371.434.412.735.025.178 0 .362.037.546a7.31 7.31 0 0 1 .401-1.223c.201-.467.556-.682 1.071-.666.348.01.566.156.677.483.127.368.265.733.424 1.169.169-.306.053-.517.018-.74-.047-.291-.085-.61.207-.82a.485.485 0 0 1 .569 0 .687.687 0 0 1 .289.795c-.444 1.63-.082 3.238.1 4.852.086.761.113 1.529.201 2.29.023.2.014.575.302.545.235-.025.221-.375.222-.602.009-1.515.012-3.03.01-4.547 0-.633.038-1.266-.056-1.903-.053-.361.157-.645.509-.684.351-.039.54.24.548.58.015.632.073 1.27-.113 1.891-.113.376-.083.762-.082 1.144 0 1.466.122 2.944-.022 4.396-.154 1.56.302 3.078.136 4.622-.003.05.004.1.022.148.009.026.043.043.087.083a.783.783 0 0 0 .148-.601c-.186-1.77.061-3.531.075-5.298 0-.383-.04-.764-.053-1.147-.057-1.738.263-3.459.223-5.197-.012-.52.289-.868.603-.83.365.046.638.508.563.986-.277 1.767-.201 3.546-.22 5.325-.011 1.06-.121 2.124-.237 3.185-.095.872-.28 1.811.173 2.764.228-.332.334-.732.301-1.133-.062-1.028.155-2.017.346-3.018.153-.802-.012-1.636.063-2.448.127-1.36-.049-2.74.272-4.085.15-.625.432-.97.735-.838.468.2.402.633.342 1.038-.273 1.85-.479 3.708-.315 5.56.119-.207.333-1.432.373-1.913.126-1.479.356-2.947.687-4.393.082-.37.319-.62.718-.527.429.1.423.465.358.812-.128.69-.569 1.273-.675 1.98-.226 1.503-.723 2.972-.613 4.523.019.275-.155.55.021.896.233-.62.44-1.188.493-1.793a22.283 22.283 0 0 1 1.125-5.21c.092-.271.215-.583.588-.473.346.1.338.43.301.715-.092.632-.418 1.197-.573 1.803a26.2 26.2 0 0 0-.703 3.871c-.125 1.273-.521 2.476-.837 3.7-.15.578-.361 1.148-.259 1.764.019.114-.007.243.128.3.158.067.25-.046.34-.145.159-.172.279-.377.349-.601.281-.93.375-1.89.526-2.844.259-1.625.54-3.248.881-4.86.201-.927.332-1.866.615-2.774.11-.351.341-.571.713-.425a.53.53 0 0 1 .361.575.532.532 0 0 1-.089.227c-.884 1.25-.668 2.755-1.032 4.123-.301 1.126-.402 2.292-.619 3.435-.1.533-.508.99-.402 1.578.025.134-.075.343.133.376.158.025.28-.133.332-.268.125-.324.274-.655.311-.995.139-1.255.526-2.473.551-3.745.009-.49.254-.931.375-1.403.262-1.016.49-2.043.897-3.017a1.02 1.02 0 0 1 .22-.387c.118-.108.251-.173.411-.11a.358.358 0 0 1 .229.357c-.01.116-.027.231-.05.345-.022.17-.167.385.067.488.234.104.301-.13.428-.258.568-.593 1.287-1.002 1.932-1.495.362-.28 1.137-.08 1.391.234.283.352.232.94-.114 1.448-.523.772-.713 1.662-.871 2.557-.029.168-.049.366.11.553.413-.482.409-1.118.665-1.645.103-.245.234-.48.389-.696.17-.214.42-.309.669-.158.248.152.228.433.109.63-.608 1.009-.904 2.151-1.412 3.201-.143.294-.312.591-.124.989.301-.315.546-.68.723-1.078.224-.501.503-.977.83-1.418.235-.3.314-.728.482-1.089.126-.27.271-.626.651-.434.336.17.253.524.115.802-.524 1.045-1.082 2.072-1.515 3.16-.089.225-.224.45-.132.762.31-.26.426-.612.574-.92a44.958 44.958 0 0 1 1.546-2.972c.04-.073.085-.143.133-.21.201-.273.47-.509.804-.327.362.2.153.51.045.792-.201.538-.662.966-.627 1.627.123-.179.249-.357.368-.539.101-.153.184-.32.301-.462.201-.249.465-.554.789-.3.301.241-.013.494-.148.732a19.205 19.205 0 0 0-1.113 2.432c.16.033.208-.026.232-.082.373-.876 1.01-1.61 1.34-2.505.164-.445.541-.653.882-.501.342.152.449.592.201 1.002a47.12 47.12 0 0 0-1.584 2.828c-.27.518-.573 1.016-.867 1.52-.28.48-.331 1.058-.608 1.559-.171.306-.447.588-.484 1.009.214.005.276-.154.329-.268.483-1.039 1.211-1.932 1.657-3.006.537-1.297 1.313-2.497 1.999-3.731.129-.23.318-.49.626-.4.308.087.43.323.27.623-.224.428-.412.894-.721 1.255-.764.89-1.105 1.998-1.588 3.02a77.737 77.737 0 0 1-2.233 4.35c-.101.186-.255.357-.26.588 0 .083 0 .175.1.205a.164.164 0 0 0 .123-.012.166.166 0 0 0 .049-.04.166.166 0 0 0 .029-.056c.271-.822.827-1.475 1.279-2.192.469-.743.924-1.496 1.365-2.258.284-.49.559-.986.804-1.497.481-1.027 1.217-1.904 1.673-2.948.151-.345.474-.356.77-.182.322.188.251.472.108.743-.502.962-1.222 1.804-1.687 2.779-.697 1.455-1.714 2.732-2.237 4.3.267-.293.627-.546.78-.89.412-.926 1.105-1.666 1.602-2.53.542-.937 1.206-1.804 1.69-2.775.133-.267.372-.408.666-.296.293.113.185.358.132.564-.181.713-.633 1.287-1.038 1.868-.528.755-.878 1.603-1.407 2.36-.208.301-.412.602-.619.903-.073.1-.201.23-.088.354.135.145.301.028.402-.067.181-.172.347-.36.496-.56a314.682 314.682 0 0 0 2.525-3.347c.147-.2.201-.46.345-.664.183-.261.458-.45.77-.26.313.191.215.479.089.76-.252.555-.804.929-.975 1.581.35-.085.668-.27.916-.532.252-.269.558-.482.898-.627.391-.175.815-.355 1.165 0 .349.355.269.846.056 1.264-.264.52-.57 1.02-.861 1.527-.249.433-.491.87-.822 1.254-.189.21-.301.477-.321.757.279.02.413-.168.488-.351.402-.961 1.269-1.56 1.827-2.398.071-.107.182-.254.322-.167.187.116.035.273-.034.388a18.268 18.268 0 0 1-1.496 2.185 3.352 3.352 0 0 0-.532.781c-.217.501-.529.923-1.028 1.19-.391.208-.58.6-.782.96a10.633 10.633 0 0 0-.757 1.703c.827-.853 1.688-1.66 2.283-2.692.108-.187.215-.394.377-.526.836-.688 1.331-1.613 1.833-2.535a1.59 1.59 0 0 1 .587-.602c.172-.1.346-.14.511 0a.445.445 0 0 1 .134.501.78.78 0 0 1-.127.27c-.904 1.103-1.528 2.398-2.435 3.473a46.6 46.6 0 0 0-2.075 2.627c-.072.092-.136.189-.194.29a.165.165 0 0 0 .032.227c.085.054.154-.011.22-.064 1.187-.948 2.172-2.077 3.105-3.27.646-.824 1.407-1.559 2.132-2.322.148-.156.354-.3.581-.175.227.127.222.401.171.63a.832.832 0 0 1-.181.402c-1.155 1.136-2.092 2.464-3.193 3.64a66.827 66.827 0 0 1-2.511 2.515 30.098 30.098 0 0 0-2.119 2.195c-.703.834-1.582 1.484-2.294 2.305-.1.12-.273.2-.292.43.375-.093.619-.336.849-.588.999-1.102 2.024-2.165 3.244-3.027 1.005-.71 1.749-1.695 2.671-2.496a52.585 52.585 0 0 0 2.889-2.705c.482-.486.957-.976 1.473-1.428.283-.248.608-.389.884-.083.252.28.189.655-.101.896-1.252 1.039-2.21 2.392-3.46 3.407-1.043.842-1.992 1.767-2.966 2.675-.142.133-.258.3-.438.5a.671.671 0 0 0 .616-.258c.636-.696 1.452-1.171 2.17-1.764 1.507-1.24 3.114-2.352 4.435-3.803.254-.28.544-.428.864-.126.319.302.117.58-.101.867-.666.886-1.661 1.378-2.454 2.104-1.074.982-2.372 1.678-3.374 2.738-.685.726-1.541 1.217-2.359 1.76-.358.24-.731.459-.932.864.12.1.214.032.288-.022.959-.693 2.019-1.22 3.013-1.847.561-.352 1.005-.867 1.593-1.203 1-.558 1.776-1.44 2.781-2.005.352-.194.651-.473.868-.812.231-.355.554-.621.889-.874.268-.2.571-.191.863-.11.34.101.439.482.193.767a4.04 4.04 0 0 1-.568.488c-.092.073-.215.11-.294.19-.82.848-1.876 1.396-2.767 2.134-1.375 1.14-2.995 1.889-4.408 2.955-.177.134-.51.252-.375.5.134.25.502.184.729.079.596-.26 1.175-.559 1.731-.896.395-.248.815-.462 1.192-.737a481.275 481.275 0 0 0 4.621-3.407c.327-.246.622-.261.898 0 .324.31.029.566-.172.76-.36.347-.815.579-1.219.87-1.419 1.027-2.932 1.92-4.319 2.99-.272.21-.619.327-.936.476-.167.078-.402.131-.325.36.078.23.292.101.44.06.822-.21 1.547-.656 2.251-1.084 1.422-.866 2.907-1.633 4.266-2.605.176-.129.385-.205.602-.219a.505.505 0 0 1 .496.28c.093.176-.013.316-.11.458-.402.589-1.038.817-1.64 1.102-.632.3-1.259.614-1.882.933-.107.055-.277.132-.201.3.063.13.217.073.318.031.616-.253 1.233-.5 1.838-.781.425-.195.833-.426 1.244-.65.274-.149.55-.243.729.1.171.322.171.653-.131.916-.189.169-.614.21-.53.51.084.298.493.28.775.372.518.168 1.063.11 1.589.218.428.088.816.21.952.688.135.479-.186.745-.508.993-1.072.833-2.278 1.433-3.549 1.914-.113.032-.221.08-.321.141-.187.14-.548.223-.402.532.126.272.449.165.681.095a23.086 23.086 0 0 0 3.301-1.311c.088-.049.178-.092.27-.13.226-.074.477-.16.619.119.143.278-.014.476-.25.622-1.463.902-3.02 1.578-4.733 1.846-.446.07-.876.227-1.334.229-.219 0-.362.156-.502.3-.214.208-.407.442-.686.602a4.628 4.628 0 0 0 1.693-.379c.366-.167.75-.29 1.144-.366 1.088-.168 2.08-.614 3.097-.988a.885.885 0 0 1 .391-.057c.291.034.573.117.638.462.065.345-.114.558-.42.645-1.028.292-2.058.578-3.094.842-1.29.33-2.619.501-3.881.946-1.263.445-2.586.466-3.907.486a6.443 6.443 0 0 0-2.925.781c-.127.067-.315.164-.258.323.057.16.273.106.402.066 1.527-.475 3.131-.524 4.693-.801.844-.149 1.707-.346 2.58-.286.232.016.524-.028.588.26.073.328-.248.441-.464.489-.703.156-1.363.435-2.14.4-1.062-.046-2.109.31-3.14.569-.492.123-1.035.009-1.48.4.855-.05 1.708-.09 2.566-.155 1.703-.127 3.373-.476 5.047-.787.615-.114 1.253-.039 1.83-.2.917-.253 1.857-.317 2.775-.512.521-.11 1.032-.273 1.564-.332.316-.035.639.008.796.301.172.32.019.637-.24.847-.355.288-.325.442.1.583.317.1.515.348.461.688-.057.364-.342.536-.688.546-.703.021-1.406.111-2.102.091-1.23-.035-2.473.01-3.641.287-1.167.278-2.368.3-3.545.48-.685.107-1.391.218-2.097.133-.091-.01-.201-.067-.266.046a.123.123 0 0 0 .037.092.125.125 0 0 0 .092.038c1.013.039 2.039.184 3.038.08 1.288-.134 2.567-.413 3.864-.418 1.376-.005 2.712-.4 4.082-.372.149 0 .301-.038.449-.043.301-.008.586.043.703.359.115.3 0 .56-.235.761-.181.156-.287.265-.089.523.242.316.093.557-.288.662-.224.06-.444.142-.664.216-.117.04-.22.1-.201.246.012.119.122.15.216.182.572.186 1.145.366 1.717.553.424.14.954.212 1.044.732.089.52-.201.961-.646 1.27-.137.094-.247.231-.391.313-.36.2-.653.371-.144.765.228.177.101.43-.124.582a.93.93 0 0 1-.822.094 3.366 3.366 0 0 0-1.341-.134c-.603.055-1.14-.256-1.729-.25-.1 0-.2-.04-.301-.03-.161.018-.411.009-.42.185-.012.216.247.182.396.186 1.093.032 2.138.363 3.214.507.804.109 1.014.534.579 1.224-.122.193-.077.324.034.5.319.493.068.995-.52 1.068a.616.616 0 0 1-.249-.005c-.825-.257-1.677-.273-2.529-.33-1.009-.067-1.92-.55-2.908-.746-.673-.134-1.356-.167-2.03-.266-.771-.112-1.54-.286-2.323-.328-.243-.014-.488-.062-.769.058.284.3.622.346.939.37 1.442.109 2.813.602 4.237.776 1.346.17 2.579.835 3.957.829.302 0 .603.048.904.057.252-.005.502.036.739.12.525.213.619.664.213 1.063a3.537 3.537 0 0 1-.392.292c.016.173.164.167.258.214.301.148.603.32.459.712-.144.393-.496.59-.892.454-.731-.25-1.516-.25-2.237-.538-1.004-.4-2.078-.483-3.123-.701-1.389-.29-2.784-.564-4.169-.869-.827-.182-1.624-.581-2.452-.834-.123-.039-.239-.13-.412-.038.21.434.624.577 1.025.694.639.188 1.306.3 1.941.478 1.43.4 2.897.63 4.325 1.058 1.284.385 2.594.742 3.918 1.015.358.085.706.209 1.037.369.262.116.402.311.348.595-.052.3-.301.337-.541.326a9.367 9.367 0 0 1-2.499-.452c-1.712-.567-3.43-1.109-5.168-1.594a1.037 1.037 0 0 1-.527-.275c-.193-.224-.388-.3-.65-.131-.119.076-.367-.028-.374.166-.008.22.211.385.394.4.584.045 1.063.431 1.628.479 1.042.086 1.958.545 2.901.918a8.08 8.08 0 0 0 2.019.52c.733.09 1.441.4 2.152.627.26.084.324.316.301.573a.577.577 0 0 1-.443.544c-.179.05-.401.085-.54-.02-.546-.4-1.221-.485-1.828-.64-1.658-.422-3.154-1.324-4.867-1.524-.301-.037-.603-.166-1.005-.28.386.5.713.865 1.285.983.603.142 1.196.32 1.778.53.248.082.583.2.445.54-.125.313-.436.446-.79.339-.333-.1-.659-.223-1.073-.165.167.299.445.522.773.623 1.551.532 3.014 1.257 4.49 1.968.535.257.603.557.247 1.03-.176.236-.16.42 0 .627.288.351.663.622 1.087.784.186.077.375.145.557.226.783.349.84.747.201 1.328-.517.47-1.098.673-1.815.702-1.558.068-2.93-.372-4.201-1.232-.302-.2-.651-.341-.982-.5-.1-.05-.24-.116-.325-.009-.121.15.042.239.126.328.603.641 1.359 1.078 2.093 1.542.333.21.618.457.783.819a.417.417 0 0 1-.034.472.434.434 0 0 1-.502.124 1.733 1.733 0 0 1-.867-.573c-.502-.648-1.181-1.08-1.824-1.551-.301-.22-.502-.541-.83-.717-.177-.093-.336-.221-.518-.3-.162-.073-.391-.2-.51-.043-.132.177.13.274.237.368 1.102.97 2.212 1.93 3.329 2.879.266.225.433.42.164.74-.251.301-.544.34-.829.084-.933-.835-2.032-1.471-2.872-2.413a.418.418 0 0 0-.109-.1c-1.067-.533-2.009-1.239-2.902-2.023-.108-.1-.293-.164-.402 0-.108.163.054.237.155.321 1.356 1.127 2.705 2.264 4.073 3.375.813.66 1.585 1.37 2.468 1.947.348.227.32.594.13.94-.19.347-.418.266-.754.176-.671-.18-1.039-.623-1.326-1.188a.732.732 0 0 0-.302-.327c-.989-.529-1.662-1.436-2.534-2.11-1.635-1.263-3.165-2.655-4.872-3.838-1.177-.815-2.103-1.95-3.279-2.786-.1-.071-.168-.219-.421-.117.804.674 1.285 1.603 2.222 2.08.378.182.714.44.987.758a8.364 8.364 0 0 0 1.918 1.672c.41.285.782.621 1.105 1.002a16.16 16.16 0 0 0 2.804 2.404c1.183.809 2.053 1.89 3.114 2.786.301.255.384.607.136.881-.273.301-.603.109-.818-.152-.827-1.015-1.854-1.82-2.865-2.625-1.093-.87-2.141-1.804-3.327-2.56a3.178 3.178 0 0 0-.301-.13c.277.4.59.55.852.756a26.883 26.883 0 0 1 2.923 2.73c.481.51 1.158.787 1.627 1.328.219.25.412.523.574.814.107.194.139.39-.037.549-.191.173-.401.075-.536-.073-1.096-1.175-2.511-1.994-3.563-3.22-.336-.392-.717-.74-1.205-.96-.344-.153-.545-.486-.791-.758-.369-.407-.727-.824-1.314-1.083.135.622.597.969.996 1.241.821.56 1.336 1.461 2.218 1.933.067.05.124.112.168.183.192.24.413.508.201.802-.201.27-.513.16-.789.081-.076-.02-.148-.088-.228-.014a.191.191 0 0 0 .012.125c.019.039.05.07.088.09.98.673 1.593 1.695 2.411 2.52.242.244.488.45.816.555l-.006-.006c.034 1.09.034 1.09-1.174.5.686.947.782 2.06 1.272 3.016.133.257.191.57-.081.781-.273.21-.576.162-.855.01-.353-.19-.695-.4-1.035-.614a.653.653 0 0 0-.748-.014c-.434.252-.813.2-1.134-.235a4.587 4.587 0 0 0-1.045-.988c-.144.256 0 .407.111.535.265.3.33.687.502 1.028.151.3-.024.56-.294.712-.269.152-.451-.052-.585-.24a4.769 4.769 0 0 1-.358-.654c-.502-1.002-1.386-1.746-1.869-2.761-.186-.39-.319-.81-.696-1.075-.101-.073-.201-.219-.345-.1-.12.1-.007.212.033.316.134.349.384.624.583.933.749 1.163 1.333 2.425 2.138 3.558.375.529.354 1.188 0 1.303-.575.194-.804-.347-1.014-.683-.544-.877-.948-1.842-1.507-2.711-.649-1.01-1.234-2.052-1.826-3.093a2.465 2.465 0 0 0-.828-.82c-.147.2-.049.36.036.512.503.88.875 1.84 1.701 2.505a.413.413 0 0 1 .142.255c.114 1.238.958 2.13 1.499 3.166.17.325.356.644.495.982.092.225.069.478-.175.619-.244.141-.402 0-.563-.177a8.148 8.148 0 0 1-1.314-1.976c-.401-.845-.803-1.722-1.419-2.457-.138-.165-.292-.346-.349-.545-.383-1.325-1.337-2.333-1.928-3.537-.363-.739-1.083-1.22-1.347-2.013a.406.406 0 0 0-.124-.157c-.122-.107-.267-.311-.414-.208-.192.136.057.278.101.419.272.801 1.004 1.272 1.433 1.973.462.752.872 1.533 1.33 2.286.458.754.839 1.584 1.255 2.374.676 1.284 1.298 2.593 1.992 3.867.24.442.477.901.215 1.416-.219.432-.515.477-.804.1-.272-.351-.575-.689-.593-1.185a1.587 1.587 0 0 0-.201-.664c-.74-1.359-1.354-2.78-2.2-4.09-.593-.917-1.01-1.949-1.586-2.887-.147-.238-.332-.66-.546-.549-.273.143.013.501.119.737.261.573.695 1.066.778 1.721.02.064.059.12.112.162.793.784 1.131 1.849 1.723 2.748.503.76.651 1.66 1.206 2.39.419.527.685 1.16.768 1.827.013.066.022.133.026.2-.01.51-1.252 1.246-1.707 1.009-.155-.082-.276-.175-.416.042-.353.546-.595.554-1.005.067-.083-.1-.12-.286-.268-.268-.187.023-.156.23-.201.365a2.803 2.803 0 0 0-.046 1.34c.115.583.006 1.132-.117 1.684-.129.576-.43.711-.952.428-.478-.26-.803-.702-1.175-1.081-.153-.155-.296-.318-.447-.474-.151-.157-.323-.213-.536-.085-.442.266-.664.008-.776-.377-.176-.61-.308-1.23-.477-1.842a5.353 5.353 0 0 0-.287-.743.209.209 0 0 0-.238-.145c-.133.038-.101.162-.078.255.177.83.344 1.662.548 2.485.077.311.151.614.109.933-.034.254-.159.45-.435.476-.275.025-.451-.135-.53-.374a5.12 5.12 0 0 1-.254-.966 20.91 20.91 0 0 0-.852-3.854c-.066-.2-.154-.392-.408-.353-.301.047-.241.283-.187.471.348 1.203.357 2.475.821 3.658.201.523.179 1.115.212 1.68.003.237-.078.468-.227.652a.559.559 0 0 1-.954-.078 1.176 1.176 0 0 1-.127-.582c.035-.99-.123-1.959-.29-2.932-.179-1.032-.243-2.084-.467-3.106a1.896 1.896 0 0 0-.112-.384c-.092-.2-.226-.441-.476-.33-.25.11-.006.312.021.47.201 1.203.418 2.396.611 3.597.111.691.193 1.386.278 2.08.043.349.079.702-.032 1.044-.075.234-.224.368-.48.353-.236-.014-.402-.162-.408-.373-.033-.82-.361-1.591-.363-2.42 0-1.102-.333-2.165-.416-3.258-.064-.849-.44-1.647-.386-2.511a1.321 1.321 0 0 0-.279-.844c-.626-.864-.637-1.878-.753-2.865-.07-.6-.151-1.192-.502-1.703-.092-.135-.159-.3-.354-.334-.169.142-.023.267.019.395.236.682.538 1.359.488 2.117 0 .167.034.333.1.486.216.585.366 1.164.239 1.804-.085.435.221.828.301 1.252.259 1.338.593 2.662.762 4.018.142 1.141.342 2.276.518 3.412.013.082.038.162.052.244.074.407-.023.802-.439.89-.415.088-.548-.333-.602-.65-.142-.77-.226-1.55-.346-2.323-.269-1.74-.271-3.507-.692-5.241-.244-1.008-.477-2.073-.514-3.142a2.195 2.195 0 0 0-.334-1.121c-.069.453-.201.807-.1 1.16.157.576.1 1.16.145 1.74a58.94 58.94 0 0 0 .352 3.377c.266 1.977.771 3.923.742 5.937 0 .268.006.54-.177.763-.115.14-.222.324-.427.315-.232-.01-.324-.208-.402-.395-.238-.548-.248-1.135-.29-1.716-.017-.225.025-.462-.143-.714-.231.33-.167.644-.119.944.063.431.077.868.044 1.303-.019.313-.135.665-.478.669-.375 0-.401-.364-.427-.675-.1-1.11-.287-2.217-.318-3.328-.052-1.904-.561-3.76-.477-5.67.03-.681-.366-1.31-.271-2.018-.152.464-.386.907-.282 1.403.277 1.313.101 2.662.344 3.982.181.992.087 2.004.226 3.02a9.702 9.702 0 0 1-.021 2.926c-.033.195-.101.357-.314.407-.212.05-.339-.095-.442-.254-.149-.23-.263-.48-.192-.756.239-.938.125-1.856.032-2.805a31.09 31.09 0 0 1-.187-3.438c0-.24.113-.656-.216-.66-.252 0-.175.412-.178.65-.012.894.089 1.785-.085 2.681-.085.48-.059.974.075 1.443.171.628-.1 1.22-.135 1.83-.015.26-.235.529-.54.487-.281-.038-.214-.336-.219-.544-.011-.39 0-.78 0-1.258-.38.22-.434.483-.479.737a5.697 5.697 0 0 0-.123 1.194c.017.512-.277.901-.602 1.22-.477.465-1.19.228-1.381-.412a20.827 20.827 0 0 1-.537-2.34.892.892 0 0 0-.256-.561c-.058.613-.016 1.149-.127 1.666-.038.178-.047.364-.092.54-.038.148-.113.295-.301.269-.172-.023-.252-.156-.284-.312a1.515 1.515 0 0 1-.027-.3c.005-1.483-.11-2.97.324-4.426.122-.413-.16-.802-.302-1.236-.07.272-.221.55-.196.813.062.78.062 1.562 0 2.341a24.12 24.12 0 0 1-.378 2.994c-.038.2-.153.445-.433.401-.239-.039-.353-.248-.402-.466a1.918 1.918 0 0 1 .028-.794c.201-1.03.222-2.089.385-3.107.235-1.477-.061-3 .478-4.444.201-.54-.077-1.066-.436-1.57-.059.462-.14.923-.175 1.387-.161 2.104-.271 4.209-.671 6.292-.1.536-.008 1.102-.228 1.627-.038.092-.048.2-.089.286-.133.293-.271.646-.672.53-.401-.117-.333-.476-.302-.802.071-.752.457-1.425.543-2.177.026-.227.071-.456.1-.687.156-1.283.174-2.58.422-3.857.144-.744.095-1.52.156-2.282.069-.869.228-1.715.38-2.567.087-.493.16-.98-.039-1.549-.183.4-.314.745-.301 1.131.017.251-.019.503-.105.739-.067.162-.149.313-.361.273-.212-.04-.256-.208-.241-.383.06-.7.131-1.393.201-2.09l.222-2.265c-.362.273-.302.562-.344.808a727.726 727.726 0 0 1-.712 3.878c-.278 1.485-.719 2.937-.875 4.451-.144 1.403-.495 2.774-.656 4.182-.085.744-.559 1.445-.879 2.156a.33.33 0 0 1-.19.197.339.339 0 0 1-.274-.01c-.237-.114-.466-.342-.382-.59.364-1.055-.052-2.22.578-3.26.475-.785.521-1.76.657-2.66.152-1.007.377-1.998.598-2.986.254-1.137.32-2.304.671-3.425.149-.477.264-.966.383-1.453.034-.135.134-.278.009-.43-.249.053-.247.271-.325.45-.378.87-.363 1.874-.928 2.679a.389.389 0 0 0-.05.24c.107 1.226-.458 2.334-.628 3.513-.128.888-.396 1.759-.387 2.666 0 .381-.138.719-.219 1.073-.267 1.159-.557 2.313-.86 3.463-.082.315-.284.587-.628.658-.254.052-.382-.163-.502-.348a.541.541 0 0 1-.028-.483c.48-1.439.966-2.884 1.222-4.376.217-1.28.681-2.495.832-3.789.101-.869.314-1.736.83-2.485.036-.052.083-.125.072-.178-.12-.578.121-1.114.235-1.718-.245.072-.285.244-.32.385-.243.97-.511 1.934-.774 2.897-.243.896-.577 1.775-.737 2.69-.285 1.627-.95 3.158-1.178 4.796-.081.579-.379 1.102-.416 1.693-.014.216-.192.386-.353.535a.507.507 0 0 1-.602.08c-.201-.101-.213-.301-.184-.482.06-.377.111-.776.238-1.116.427-1.143.502-2.389 1.052-3.49.186-.377.052-.794.201-1.175.225-.573.502-1.147.602-1.745.228-1.325.795-2.567.932-4.035-.401.573-.672 1.102-.703 1.693-.026.528-.162 1.015-.301 1.512-.328 1.133-.617 2.277-1.105 3.357a2.629 2.629 0 0 0-.22 1.117c.007.59-.183 1.116-.447 1.622-.231.443-.521.855-.626 1.358a.61.61 0 0 1-.256.362c-.14.1-.292.18-.465.091-.173-.088-.178-.253-.176-.43 0-.453.183-.847.416-1.215.213-.341.341-.728.375-1.128.011-.111.1-.25-.024-.32-.143-.081-.251.052-.341.146-.453.467-.918.926-1.345 1.416-.449.515-.85 1.072-1.295 1.591a2.764 2.764 0 0 0-.488.749c-.14.342-.427.551-.735.727a.666.666 0 0 1-.757-.056c-.384-.271-.494-.677-.447-1.102.05-.33.137-.653.261-.963.279-.77.243-1.611.603-2.426-.258.056-.273.237-.334.37-.23.5-.424 1.02-.869 1.387-.174.144-.349.287-.583.183-.234-.104-.208-.355-.213-.569a.757.757 0 0 1 .147-.522c.939-1.096 1.361-2.476 2.059-3.707.181-.319.35-.646.502-.976.234-.49.229-.951.017-1.487-.2-.495-.166-1.077-.25-1.618-.021-.14-.009-.342-.177-.385-.207-.052-.283.154-.353.292-.762 1.503-1.894 2.765-2.831 4.153-.409.6-.729 1.266-1.221 1.818-.237.267-.496.455-.816.209-.344-.267-.236-.642.01-.882 1.123-1.102 1.831-2.498 2.756-3.74.831-1.117 1.633-2.271 2.261-3.524a1.73 1.73 0 0 0 .213-1.094c-.393.468-.779.802-1.005 1.225-.412.77-.997 1.413-1.441 2.158-.844 1.418-2.047 2.574-2.966 3.942a4.506 4.506 0 0 1-.703.778c-.264.244-.587.352-.904.08-.227-.2-.182-.727.101-.944a8.412 8.412 0 0 0 1.753-1.918c.865-1.264 1.909-2.383 2.832-3.595 1.005-1.318 1.896-2.716 2.902-4.032.532-.695.898-1.514 1.413-2.226.281-.388.651-.712.824-1.178.04-.107.115-.21-.022-.386-.391.42-.752.867-1.081 1.337-.602.834-1.069 1.764-1.796 2.51-.385.394-.77.776-.983 1.31-.165.412-.557.664-.878.95-.947.842-1.438 2.047-2.354 2.912-.534.501-1.119.985-1.499 1.61-.541.883-1.277 1.58-1.968 2.324-.088.1-.188.191-.296.27-.223.153-.475.33-.724.1a.671.671 0 0 1-.155-.825c.051-.106.119-.202.201-.285 1.453-1.425 2.759-2.987 4.081-4.526.676-.786 1.251-1.672 1.945-2.462a53.626 53.626 0 0 0 4.085-5.238c.277-.407.602-.784.928-1.268-.441.111-.642.41-.854.66-.502.588-1.004 1.158-1.65 1.596a.568.568 0 0 0-.235.254c-.252.826-.984 1.287-1.449 1.947-.703 1.002-1.528 1.903-2.22 2.905-.622.902-1.421 1.64-2.072 2.505-.584.776-1.312 1.418-1.897 2.19-.319.422-.715.79-1.09 1.168-.236.238-.532.32-.81.091-.278-.228-.094-.483.018-.725.261-.567.773-.923 1.2-1.33 1.038-.99 2.065-2.013 2.896-3.155.909-1.249 2.11-2.268 2.806-3.685.246-.501.758-.837 1.163-1.235a.157.157 0 0 0 .046-.043.14.14 0 0 0 .026-.058.15.15 0 0 0 .002-.063.143.143 0 0 0-.023-.06c-.325.268-.685.485-.941.787-.817.967-1.593 1.97-2.392 2.952a4.199 4.199 0 0 1-.602.667c-1.075.856-1.73 2.063-2.612 3.08-.559.647-1.137 1.262-1.821 1.774-.25.187-.53.342-.799.03-.249-.288-.062-.527.123-.754.3-.357.647-.672 1.032-.936.503-.358.748-.966 1.213-1.384.408-.367.754-.802 1.125-1.21.1-.11.243-.261.123-.39-.149-.16-.255.045-.357.134-.914.802-1.9 1.511-2.875 2.236a34.655 34.655 0 0 0-2.009 1.646c-.402.345-.841.3-1.281.21-.335-.068-.456-.45-.24-.828.563-.982.88-2.092 1.576-3.005.091-.12.287-.293.131-.432-.19-.168-.319.085-.45.187-.277.215-.525.469-.811.668-.247.173-.554.236-.766-.044-.201-.258-.066-.539.144-.716.969-.816 1.885-1.693 2.913-2.436.235-.17.458-.34.524-.64.007-.033-.047-.113-.064-.111-.28.036-.494.217-.671.4-.888.931-1.847 1.791-2.87 2.573a1.832 1.832 0 0 1-.509.313c-.256.09-.519.121-.671-.141a.63.63 0 0 1 .075-.789.122.122 0 0 1 .037-.034c1.105-.515 1.738-1.64 2.832-2.193.417-.21.76-.595 1.087-.947.239-.256.522-.479.729-.753.502-.66 1.116-1.187 1.748-1.704.111-.09.277-.206.128-.366-.126-.134-.301-.047-.402.055-.296.268-.57.558-.822.868-.792 1.002-1.855 1.676-2.873 2.387-1.019.71-1.985 1.532-3.09 2.137a1.053 1.053 0 0 1-.412.169c-.275.024-.502-.06-.638-.301-.136-.242.047-.422.188-.575.379-.412.885-.664 1.357-.934a10.38 10.38 0 0 0 1.298-.839c.873-.69 1.828-1.255 2.679-1.992.811-.701 1.55-1.517 2.49-2.078.209-.124.583-.263.427-.553-.083-.155-.402.1-.598.214-1.738.98-3.159 2.393-4.792 3.512-.917.628-1.808 1.317-2.858 1.746-.26.106-.502.247-.69-.08a.56.56 0 0 1 .149-.765c.269-.22.595-.366.877-.57.925-.674 2.002-1.092 2.883-1.863.845-.738 1.701-1.492 2.688-2.059a.73.73 0 0 0 .357-.363c-.201-.12-.323.009-.45.095-1.52 1.029-2.996 2.122-4.581 3.055-.532.313-1.113.53-1.634.87-.286.188-.62.065-.782-.225-.18-.32.115-.5.338-.623 1.549-.855 3.014-1.845 4.486-2.816 1.587-1.043 3.191-2.063 4.779-3.106.602-.393 1.159-.848 1.808-1.16.115-.054.274-.126.224-.286-.05-.159-.226-.119-.351-.11-.548.035-.946.382-1.372.675-1.313.902-2.542 1.928-3.924 2.734a.402.402 0 0 1-.134.066c-1.048.142-1.673.967-2.455 1.53-.412.3-.882.472-1.306.74-.762.48-1.423 1.102-2.21 1.546a1.859 1.859 0 0 0-.161.119c-.278.2-.585.268-.898.117a.527.527 0 0 1-.301-.585.804.804 0 0 1 .613-.662c.466-.131.903-.35 1.287-.644 1.045-.796 2.238-1.36 3.336-2.073 1.251-.812 2.486-1.651 3.724-2.482.092-.06.235-.129.163-.268-.072-.14-.201-.058-.316-.03-.809.206-1.506.654-2.178 1.108-1.105.742-2.119 1.644-3.304 2.24-1.03.518-2.059 1.025-3.04 1.633a2.147 2.147 0 0 1-.518.185c-.333.1-.614.023-.745-.315-.132-.337.086-.574.365-.666.71-.236 1.297-.69 1.95-1.024a.594.594 0 0 0 .344-.35c-.703.345-1.329.653-1.952.964-.165.082-.314.2-.483.267-.279.108-.554.047-.712-.2-.157-.248-.03-.483.184-.658.101-.083.213-.155.44-.32-.615-.059-1.112-.112-1.607-.15-.435-.036-.873-.058-1.24-.336-.44-.331-.426-.66.052-.92.409-.224.821-.445 1.305-.495.173-.018.409-.084.41-.301.001-.217-.234-.2-.389-.234-.242-.05-.479-.108-.503-.401-.022-.319.201-.501.462-.583.493-.16.996-.287 1.496-.423.08-.022.169-.014.248-.038.233-.07.531-.225.454-.442-.1-.29-.402-.106-.602-.015a7.814 7.814 0 0 1-2.185.667c-.302.042-.656 0-.678-.4-.022-.394.259-.623.617-.669 1.187-.152 2.252-.753 3.438-.902.156-.019.396-.075.331-.285-.07-.23-.308-.13-.479-.09a900.55 900.55 0 0 0-3.742.901.77.77 0 0 1-.703-.164c-.179-.144-.208-.332-.186-.54.026-.233.174-.35.384-.409a16.936 16.936 0 0 1 2.356-.438c1.192-.153 2.373-.378 3.505-.801.14-.053.356-.1.335-.254-.032-.223-.279-.154-.418-.13-.837.152-1.677.301-2.502.502-.78.2-1.555.4-2.358.474-.165.016-.334.013-.502.017-.402.009-.672-.183-.677-.575-.006-.422.386-.54.683-.486.556.1 1.057-.12 1.586-.148a.805.805 0 0 0 .34-.078c.834-.466 1.755-.482 2.672-.534.238-.013.681-.019.644-.21-.061-.307-.455-.178-.68-.1-1.021.361-2.1.1-3.13.326-.649.142-1.263.438-1.953.401-.408-.019-.747-.1-.791-.574-.044-.474.285-.616.655-.665a13.715 13.715 0 0 1 1.696-.155c1.293-.01 2.562-.244 3.843-.35 1.281-.107 2.511-.401 3.778-.501.703-.053 1.406-.275 2.1-.447.242-.067.49-.108.74-.12.285-.009.558-.115.774-.301-.295-.15-.531 0-.765 0-1.126.018-2.21.3-3.315.473-1.234.2-2.482.3-3.726.434-1.354.145-2.736.038-4.033.634-.644.3-1.384.178-2.086.15-.217-.009-.391-.109-.442-.338-.063-.278-.026-.538.217-.724a.957.957 0 0 1 .803-.19c.428.09.873.051 1.28-.108.715-.265 1.483-.232 2.225-.318 1.739-.2 3.474-.443 5.223-.541.904-.05 1.787-.31 2.671-.56-.641.04-1.283.093-1.925.12-2.074.09-4.119.468-6.182.601-.985.062-1.996.141-2.997.08-.635-.038-1.018-.245-1.016-.6 0-.379.516-.66 1.121-.588 2.117.248 4.195-.186 6.289-.336.026 0 .051-.034.101-.073-1.483 0-2.958-.153-4.381.053-.968.14-1.854-.124-2.779-.083a.426.426 0 0 1-.435-.247.427.427 0 0 1-.04-.172c-.023-.272.158-.372.381-.45.257-.089.529-.162.789-.094 1.27.33 2.526-.084 3.791-.064.362.006.724-.047 1.095 0 1.051.145 2.077-.068 3.106-.23v-.136h-1.063c-1.323.017-2.643.014-3.931-.37-.318-.096-.665-.047-.996.026-.776.171-1.563.153-2.35.149-.396 0-.65-.16-.627-.595.023-.435.345-.552.671-.491 1.174.218 2.337-.048 3.504-.02.735.017 1.464.163 2.202.1.174-.014.36.029.627-.144-.752-.195-1.401-.377-2.056-.523-.241-.053-.416.2-.648.238-1.353.2-2.697.268-4.001-.272-.344-.143-.618-.294-.419-.734.1-.212-.061-.262-.213-.3-.421-.109-.838-.249-1.276-.262-.438-.013-.653-.258-.728-.63-.073-.357.225-.485.485-.608 1.205-.572 2.487-.953 3.75-1.381.137-.047.364-.04.356-.208-.01-.218-.248-.173-.401-.18-.518-.023-1.037 0-1.551-.1-.218-.043-.424-.1-.589-.254-.127-.12-.221-.254-.174-.44a.39.39 0 0 1 .41-.301c.804.007 1.601-.1 2.398.107.536.13 1.088.191 1.64.18.353 0 .709-.01 1.044.11.45.161.857-.027 1.277-.116.1-.02.217-.04.212-.167-.005-.126-.135-.14-.228-.154-.645-.1-1.291-.18-1.936-.276-.856-.126-1.74-.066-2.566-.4-.301-.12-.685-.187-.583-.602.101-.415.473-.42.82-.3 1.143.382 2.349.307 3.516.487.855.13 1.718.218 2.571.374.527.085 1.065.07 1.586-.045-.628-.166-1.121-.665-1.868-.527-.898.168-1.786-.156-2.675-.267a25.032 25.032 0 0 1-3.782-.76c-.22-.064-.464-.045-.698-.06a.745.745 0 0 1-.689-.502c-.127-.331-.03-.575.36-.589.417-.03.836.01 1.239.12a21.25 21.25 0 0 0 4.664.885 4.37 4.37 0 0 1 2.075.652.21.21 0 0 0 .109.054.218.218 0 0 0 .122-.015c.59-.324 1.174-.075 1.756.023.543.093 1.081.218 1.624.323.114.027.231.034.347.023.178-.026.427-.044.438-.25.011-.207-.244-.2-.392-.233a19.575 19.575 0 0 0-1.734-.263 15.54 15.54 0 0 1-1.825-.309c-2.073-.444-4.153-.849-6.228-1.288-.734-.155-1.456-.363-2.182-.55-.301-.077-.374-.3-.366-.576.009-.3.201-.392.465-.407.724-.04 1.371.268 2.051.43 1.526.361 3.046.746 4.603.981 1.118.17 2.21.482 3.32.733.228.05.453.14.683.153 1.153.063 2.28.3 3.416.47.32.05.651.094.98-.066-.539-.046-1.046-.264-1.582-.279a5.505 5.505 0 0 1-1.617-.322c-1.284-.433-2.633-.583-3.946-.893-.552-.13-1.092-.3-1.643-.44-1.326-.324-2.656-.638-3.985-.956-.552-.132-1.105-.26-1.657-.39a.767.767 0 0 1-.237-.079c-.278-.178-.537-.38-.378-.767.154-.371.439-.401.79-.289 1.665.542 3.397.83 5.084 1.295.026.007.061-.017.132-.038-.261-.301-.629-.375-.951-.502-.904-.351-1.848-.575-2.748-.946-.433-.179-.941-.194-1.384-.401-.12-.055-.264-.094-.347-.186-.16-.172-.301-.38-.15-.63.14-.233.35-.291.603-.2 1.393.506 2.839.858 4.213 1.424.242.1.533.083.774.185 2.116.894 4.39 1.222 6.58 1.85.251.09.526.083.772-.017-.255-.309-.596-.292-.91-.321a1.25 1.25 0 0 1-.938-.501.325.325 0 0 1-.046-.373.304.304 0 0 1 .336-.161c.277.027.556.081.841-.075a9.776 9.776 0 0 0-3.781-1.1l.007.007ZM231.77 45.53c.352 0 .629-.168.916-.355.89-.584 1.707-1.27 2.689-1.725.638-.3 1.032-.92 1.496-1.44-.332.044-.583.2-.834.365a8.293 8.293 0 0 1-1.158.691c-.239.107-.598.173-.745-.172-.137-.324.132-.49.375-.61a7.004 7.004 0 0 0 1.623-1.061c.201-.179.381-.387.603-.52.955-.565 1.653-1.44 2.561-2.073.948-.663 1.564-1.66 2.073-2.71.24-.497.421-1.015.659-1.504.1-.212.282-.411.556-.315.251.088.239.341.229.558a.976.976 0 0 1-.094.383c-.603 1.17-1.425 2.204-2.047 3.365-.423.79-1.175 1.358-1.808 2.004-.213.218-.42.541-.171.734.27.209.402-.214.583-.376.079-.071.101-.2.145-.314.068-.18.179-.35.347-.413.415-.156.681-.47.947-.792.17-.206.375-.315.603-.124.227.19.337.049.478-.118.574-.682.991-1.462 1.396-2.247.047-.091.147-.194.031-.31-.033.013-.072.017-.091.04-.152.17-.215.545-.546.351-.33-.194-.108-.465 0-.701.36-.79.675-1.598.946-2.422.247-.794.288-1.641.686-2.396.213-.4.215-.86.216-1.317.008-.567.048-1.133.118-1.696.035-.308.157-.643.557-.549.332.08.351-.11.357-.3.028-.88.255-1.752.068-2.637a5.616 5.616 0 0 1-.1-1.344c.028-.882-.248-1.712-.454-2.551-.036-.148-.078-.327-.333-.412.082.608.148 1.181.239 1.75.055.398.065.801.03 1.202-.009.138-.066.27-.234.275-.141 0-.201-.1-.236-.221-.075-.29-.132-.586-.213-.876-.361-1.284-.385-2.641-.869-3.899-.089-.228-.209-.476-.008-.71.23-.267.427.035.697.123-.252-.947-.786-1.67-1.129-2.478-.302-.713-.862-1.26-1.271-1.903-.346-.548-.65-1.133-1.049-1.636-.992-1.251-1.98-2.505-3.355-3.406-1.449-.955-2.641-2.288-4.384-2.812-1.099-.33-2.009-1.14-3.169-1.344-.737-.13-1.471-.26-2.178-.526-.854-.321-1.778-.042-2.635-.223-1.737-.369-3.425.01-5.123.182-.664.067-1.356.1-1.976.318-1.681.589-3.406 1.055-4.981 1.94-1.344.755-2.581 1.658-3.851 2.514-.916.617-1.607 1.503-2.341 2.313-.833.924-1.608 1.904-2.223 3.006-.616 1.102-1.295 2.187-1.746 3.395-.684 1.83-1.327 3.642-1.469 5.63-.115 1.62-.15 3.24-.196 4.86-.037 1.335.376 2.63.629 3.934.19.98.639 1.89.973 2.831.655 1.847 1.783 3.425 2.803 5.058.45.72 1.206 1.24 1.714 1.932 1.105 1.503 2.592 2.599 4.118 3.539 1.527.94 3.068 1.855 4.841 2.369 1.732.5 3.42 1.102 5.242 1.223 2.125.138 4.241.181 6.328-.324.437-.105.923-.094 1.317-.281.981-.467 2.072-.61 3.045-1.09.642-.317 1.514-.301 1.707-1.243.032-.155.248-.21.394-.291.416-.234.857-.43 1.19-.794-.868.294-1.585.882-2.41 1.258-.651.301-1.251.715-1.982.811-.263.035-.576.115-.679-.231-.104-.347.158-.448.422-.57.388-.179.86-.2 1.149-.575l-.008-.017Zm6.479 17.893c.1-.438-.113-.689-.227-.95-.313-.719-.627-1.457-1.12-2.06-.846-1.032-1.89-1.877-2.554-3.094-.462-.85-.583-1.68-.502-2.57.106-1.242.068-2.438-.644-3.52-.238-.362-.502-.702-.732-1.075-.376-.61-1.044-.844-1.701-.52-.566.278-1.165.471-1.747.71-.177.072-.218.158-.09.287.375.382.647.846 1.039 1.218.923.877 1.406 2.004 1.697 3.213.188.79.201 1.631.454 2.396.453 1.36 1.351 2.343 2.724 2.924.827.35 1.683.686 2.311 1.436.398.475.65 1.035 1.093 1.605h-.001Zm-52.353-52.824-.024.147c.278.1.553.278.833.284 1.134.025 2.244.29 3.391.243 1.146-.047 2.337-.024 3.415.55.178.093.37.158.568.193 1.005.18 1.809.773 2.593 1.356.841.626 1.719 1.102 2.744 1.365.63.162 1.271.033 1.886.215.472.14.916-.064 1.088-.524.1-.227.218-.445.354-.653.186-.322.472-.689.201-1.062-.315-.427-.712-.764-1.291-.875-.853-.165-1.676.164-2.538.045-1.17-.162-2.287-.401-3.35-.94-1.43-.723-2.919-1.201-4.57-.912-.853.148-1.723.162-2.569.4a6.608 6.608 0 0 1-2.731.168Zm65.919 16.889c.885.024 1.62.044 2.353.068.863.028 1.729.29 2.592.048.454-.128.93-.154 1.395-.076 1.459.238 2.925.28 4.398.27.267 0 .533.028.803.024a.2.2 0 0 0 .217-.172c.007-.1-.09-.131-.165-.161a4.82 4.82 0 0 0-.826-.2c-1.013-.211-2.05-.27-3.056-.526-1.522-.386-3.031-.829-4.588-1.066-1.557-.237-3.16-.293-4.666-.828-.882-.313-1.839-.283-2.712-.615-.259-.1-.415.063-.387.3.107.894.118 1.788.145 2.684.011.335.149.457.475.249.188-.12.42-.079.635-.1 1.179-.135 2.35.26 3.387.1Zm-1.53 28.18c-.041-.2-.18-.321-.323-.438-.49-.401-.987-.794-1.473-1.203-1.525-1.271-2.605-2.943-3.94-4.386a77.423 77.423 0 0 1-2.163-2.414c-.617-.727-1.306-1.423-1.917-2.16-.473-.569-1.068-.586-1.674-.063-.49.423-.798 1.03-1.42 1.323-.463.217-.469.41-.045.701 1.284.866 2.585 1.709 3.863 2.584.402.273.845.447 1.237.748 1.029.793 2.082 1.56 3.186 2.255l1.942 1.222c.615.388 1.162.885 1.735 1.34.235.185.451.394.692.572.098.072.253.137.3-.08Zm9.667-43.428c-.796-.137-1.616-.129-2.33.13-.857.312-1.66.702-2.604.735-.685.025-1.367.1-2.048-.012-.971-.161-1.936-.444-2.913-.477-1.499-.05-3.025.013-4.355.852-1.24.781-1.553 1.027-.817 2.29.017.029.036.056.051.086.502.982.481.942 1.44.413.883-.488 1.708-1.088 2.755-1.275a8.293 8.293 0 0 1 2.696-.075c1.902.288 3.436-.601 5.022-1.357.539-.258 1.014-.637 1.599-.818.503-.153 1.039-.2 1.504-.491v-.002ZM248.62-.992l-.1-.106a1.292 1.292 0 0 0-.232.063c-1.165.56-2.144 1.403-3.156 2.18-.726.552-1.479 1.079-2.21 1.625-1.075.801-2.15 1.626-3.288 2.355-.459.295-.963.538-1.371.913-.408.375-.47.745-.101 1.066a20.13 20.13 0 0 1 1.579 1.518c.33.357.615.323.928-.049.417-.5.843-.993 1.231-1.515.703-.954 1.593-1.751 2.318-2.69.987-1.28 2.031-2.516 3.083-3.743.456-.529.881-1.078 1.319-1.617ZM201.036 35.48c0-.305-.133-.539-.264-.771-.365-.646-.578-1.346-.739-2.065-.065-.295.018-.708-.372-.802-.413-.1-.603.279-.823.545a1.616 1.616 0 0 0-.18.3c-.874 1.71-2.175 2.97-4.024 3.534a10.195 10.195 0 0 0-4.49 2.79c-1.093 1.146-1.954 2.482-2.974 3.69-.079.094-.218.231-.07.341.132.1.233-.064.337-.14.38-.284.64-.678.941-1.033.791-.934 1.83-1.594 2.712-2.434.591-.562 1.265-1.133 2.05-1.42 1.449-.53 2.884-1.137 4.485-1.119 1.067.012 2.072-.311 3.014-.813.259-.138.429-.316.397-.603Zm7.015 28.38c.063-.079.11-.14.16-.2.408-.468.407-1.12.744-1.626.218-.328.496-.654.508-1.072.02-.733.132-1.497-.03-2.194-.248-1.064-.079-2.044.195-3.05a5.753 5.753 0 0 1 1.675-2.784c.445-.402.81-.884 1.076-1.42.369-.76.384-1.583.573-2.37.152-.632-.132-.995-.726-1.267-.286-.131-.603-.19-.86-.4-.224-.182-.384-.044-.444.183-.037.179-.052.363-.043.546 0 1.079-.379 2.056-.847 2.998-.468.943-1.176 1.744-1.6 2.706-.218.5-.587.943-.566 1.528.049 1.372.35 2.705.665 4.03.158.663.302 1.293.113 1.959-.176.606-.249 1.242-.542 1.817-.084.17-.18.363-.051.615Zm51.639-18.477c.148.015.274.06.309-.068.047-.167-.107-.24-.221-.289-1.072-.46-2.109-1.04-3.262-1.261-1.448-.279-2.727-.702-3.86-1.784-1.298-1.247-2.543-2.546-3.817-3.812-.737-.732-1.558-1.319-2.563-1.59-.751-.2-1.171.05-1.445.758-.18.467-.361.929-.686 1.323-.1.122-.232.273-.117.449.095.146.273.12.416.1.793-.1 1.52.187 2.249.413 1.584.49 2.863 1.52 4.063 2.587 1.2 1.066 2.573 1.56 4.094 1.803 1.484.243 2.964.493 4.32 1.187.168.075.342.137.52.184Zm-37.071 20.57c-.192-.99-.021-1.987-.075-2.982-.131-2.391.16-4.789-.19-7.181-.206-1.414-.081-2.856-.118-4.285-.017-.675-.173-.894-.827-.944-.565-.043-1.136-.018-1.708-.02-.313 0-.44.2-.369.458.236.869.33 1.769.573 2.63.234.83.44 1.669.603 2.511.201 1.024.238 2.08.467 3.096.383 1.704.59 3.446 1.217 5.085.203.535-.016 1.15.427 1.632ZM231.02 3.24c.384-.038.628-.155.796-.492.34-.687.561-1.428.972-2.081.432-.688.703-1.467 1.318-2.05a4.728 4.728 0 0 0 1.475-2.824c.143-.923.214-1.856.213-2.79-.025-1.672.35-3.234 1.247-4.659.09-.142.209-.315.021-.44-.207-.137-.339.035-.435.2-.182.318-.345.648-.535.962a6 6 0 0 0-.904 2.915 49.218 49.218 0 0 1-.113 1.996 3.234 3.234 0 0 1-.761 1.92 13.386 13.386 0 0 1-1.868 1.804c-.61.48-1.306.873-1.746 1.549-.574.884-.828 1.956-1.628 2.711-.162.153-.285.447.01.601.624.325 1.31.488 1.938.678Zm-45.604 22.557c.602 0 1.14.192 1.659.067.869-.208 1.737-.213 2.624-.247 2.22-.085 4.439-.212 6.662-.244.767-.01 1.535-.063 2.302-.089.334-.012.502-.158.571-.5.141-.701.211-1.414.209-2.129 0-.701-.073-.782-.766-.584-.658.188-1.29.477-1.971.576-1.728.252-3.355.882-5.022 1.349-1.8.5-3.556 1.161-5.425 1.423-.274.043-.562.09-.844.381l.001-.003Zm36.463-37.949c-.109 1.102-.502 2.056-.623 3.064a70.655 70.655 0 0 1-.89 5.76c-.322 1.615-.809 3.196-.993 4.84-.046.413.058.61.472.622.574.018 1.125-.11 1.683-.227.557-.117.703-.42.717-.953.035-1.47-.181-2.933-.101-4.4.054-1.035-.216-2.059-.063-3.094.102-.694.104-1.4.008-2.095-.127-.93-.182-1.854 0-2.783.039-.222.094-.461-.214-.73l.004-.004Zm-25.924 9.82c-.014.235.151.313.265.423.915.883 2.038 1.503 2.943 2.405 1.032 1.04 2.098 2.042 3.127 3.082 1.407 1.418 2.889 2.76 4.296 4.18.165.168.341.33.614.201a4.743 4.743 0 0 0 1.522-1.125c.147-.162.216-.369.041-.54a5.845 5.845 0 0 0-.868-.745c-.724-.47-1.477-.89-2.18-1.403a53.214 53.214 0 0 0-2.6-1.769c-1.187-.767-2.394-1.503-3.516-2.379-.943-.733-2.075-1.202-2.979-2.014a1.374 1.374 0 0 0-.669-.31l.004-.006Zm14.025-2.97c-.015.602.128 1.136.28 1.656.183.627.101 1.246-.056 1.823-.579 2.18-.674 4.301.475 6.345.193.344.638.601.953.447.428-.22.844-.464 1.247-.727.201-.127.226-.31.119-.522a7.005 7.005 0 0 1-.75-2.806c-.03-.571.031-1.128.048-1.69a3.763 3.763 0 0 0-.569-2.197c-.427-.673-.956-1.28-1.322-1.996a.6.6 0 0 0-.429-.325l.004-.007Zm-4.747 47.82a.447.447 0 0 0-.03-.154c-.365-.552-.71-1.128-1.22-1.562-.201-.168-.453-.07-.541.163-.212.568-.633 1.012-.876 1.567-.39.904-.825 1.786-1.306 2.645-.533.94-1.022 1.903-1.625 2.805-.72 1.08-1.373 2.205-2.044 3.32-.137.228-.474.564-.247.723.318.224.486-.22.64-.447.804-1.172 1.708-2.262 2.571-3.385.583-.759 1.311-1.372 1.893-2.13.778-1.016 1.497-2.087 2.47-2.942a.991.991 0 0 0 .315-.604Zm46.981 14.027c-.135-.479-.166-.46-.33-.728-.745-1.217-1.982-1.963-2.884-3.031-.301-.358-.544-.757-.857-1.103-1.14-1.261-2.304-2.505-3.34-3.851a19.92 19.92 0 0 0-1.899-2.104 18.231 18.231 0 0 1-1.725-1.861c-.074-.1-.129-.289-.29-.2-.126.068-.092.244-.061.37.117.47.417.842.742 1.173 1.061 1.083 2.199 2.09 3.163 3.27a51.864 51.864 0 0 0 2.79 3.143c.832.862 1.507 1.867 2.458 2.627.477.394.884.865 1.206 1.393.249.401.581.612 1.027.902Zm11.694-35.193c-1.016-.076-2.009-.088-3.014.163-1.33.33-2.719.284-4.074.469-1.435.195-2.851.538-4.3.634-.898.06-1.792.146-2.683.27-.224.03-.453.027-.627.244 4.967-.021 9.841-.832 14.698-1.78Zm-23.665 43.71c.224-.151.188-.357.143-.518-.282-1.041-.568-2.074-1.105-3.033-.602-1.072-1.441-1.96-2.193-2.906-.789-.989-1.26-2.064-1.6-3.238-.057-.2-.058-.501-.374-.401-.274.082-.201.343-.148.557.021.081.057.157.075.238.41 1.817 1.621 3.147 2.748 4.533.893 1.103 1.799 2.192 2.098 3.646.076.37.129.778.356 1.122Zm14.837-47.153c-.134-.172-.307-.1-.477-.06-.874.221-1.748.447-2.651.512-.75.053-1.507.1-2.222.33-.817.262-1.7.389-2.368 1.002-.228.209-.603.501-.402.758.201.256.584-.035.836-.215 1.004-.723 2.184-1.007 3.372-1.153 1.223-.15 2.361-.57 3.533-.888a.504.504 0 0 0 .379-.282v-.004Zm-68.89 8.83c.338.107.692.157 1.047.147 1.637.01 3.278-.045 4.911.053 1.967.117 3.926.242 5.884-.042.302-.043.833.182.842-.187.007-.262-.593-.227-.933-.215-1.418.053-2.835.2-4.249.176-2.204-.04-4.408-.091-6.613-.077-.278-.001-.563-.032-.889.144Zm69.297 13.975a.546.546 0 0 0-.267-.364c-.301-.2-.649-.359-.917-.601a79.201 79.201 0 0 1-2.333-2.195c-1.347-1.313-2.935-2.23-4.691-2.877-.176-.065-.388-.125-.47.109-.075.218.129.269.287.327.454.165.916.315 1.36.5 1.291.553 2.356 1.435 3.38 2.37.848.773 1.673 1.57 2.522 2.342.229.195.477.364.742.506.151.096.33.118.387-.117Zm-32.289-51.767c-.114.866-.074 12.117.078 12.547.056-.634.291-1.117.269-1.653-.06-1.412.134-2.824 0-4.237-.071-.76.048-1.556-.064-2.28-.19-1.235-.064-2.46-.153-3.683-.014-.21.04-.43-.13-.694Zm-.042 74.068c-.076.654.065 1.195.091 1.744 0 .08.015.184.123.189.107.005.139-.085.146-.17.021-.148.026-.299.013-.449a7.712 7.712 0 0 1-.084-1.795c.169-2.01.126-4.027.14-6.039.011-1.548-.069-3.098.007-4.647a2.904 2.904 0 0 0-.053-.501c-.011-.08-.01-.185-.118-.194-.135-.01-.15.108-.168.2a1.601 1.601 0 0 0-.015.25c-.04 3.84.087 7.678-.085 11.412h.003Zm27.724-47.043c-.939-.1-1.829.151-2.712.39-.595.16-1.183.373-1.68.761-.201.155-.425.363-.23.625.171.232.39.042.576-.064 1.329-.758 2.75-1.192 4.29-1.21.55-.006 1.105.044 1.643-.133.172-.058.485-.024.436-.301-.044-.246-.333-.162-.519-.161-.61.006-1.205.149-1.81.093h.006Zm.463 22.8c.496.647.888 1.332 1.485 1.887 1.188 1.102 2.49 1.888 4.106 2.124a9.367 9.367 0 0 1 2.194.636c.269.11.516.295.92.266-.201-.29-.395-.487-.654-.607a7.487 7.487 0 0 0-1.656-.56c-.538-.109-1.09-.174-1.614-.33-1.024-.3-1.902-.885-2.704-1.578-.699-.61-1.392-1.226-2.084-1.838h.007Zm-2.557 12.216c-.37-.701-.91-1.264-1.406-1.865-.921-1.119-1.909-2.184-2.855-3.277-.703-.802-1.278-1.711-2.072-2.433-.101-.09-.201-.3-.359-.153-.134.125.007.28.1.394.875 1.07 1.739 2.15 2.634 3.206.734.864 1.507 1.696 2.258 2.543.522.574.974 1.217 1.7 1.585Zm-24.271 9.877c.218-.757.176-1.547.201-2.312.067-2.198.026-4.4.024-6.599 0-.2.008-.423-.18-.593-.27.496-.333 8.818-.045 9.504ZM236.75-6.312c-.137.3-.123.63-.153.955-.1 1.102-.296 2.177-.771 3.192-.475 1.015-1.33 1.786-1.855 2.775-.412.776-1.018 1.455-1.158 2.362-.023.152-.117.39.084.432.18.036.264-.2.255-.363-.023-.439.216-.756.439-1.089.38-.566.779-1.121 1.124-1.703.395-.673.764-1.365 1.176-2.023.849-1.358 1.005-2.838.985-4.372a.146.146 0 0 0-.125-.166h-.001Zm20.221 37.514c.81.35 7.182 1.244 7.625 1.084-.755-.572-6.984-1.485-7.624-1.083l-.001-.001Zm-28.24 34.838a58.962 58.962 0 0 0-.968-8.909c-.184 3.031.382 5.974.968 8.909Zm-16.683-9.18c.41-.453.572-1.001.921-1.411a15.76 15.76 0 0 0 2.634-4.497c.138-.35.325-.701.289-1.102-.011-.12-.032-.24-.184-.254a.164.164 0 0 0-.178.144c-.157.774-.663 1.41-.84 2.185-.211.926-.703 1.726-1.342 2.42a8.956 8.956 0 0 0-1.163 1.62c-.142.252-.255.531-.137.896Zm13.493-3.383h.01v.902c.007.482.011.965.032 1.447.005.127.043.3.209.3.166 0 .135-.164.145-.275.04-.43.054-.864.115-1.29.142-.982-.015-1.999.347-2.955.05-.132.191-.313.01-.395-.219-.1-.448-.27-.704-.2-.195.051-.164.267-.165.43.001.672.003 1.355.003 2.036h-.002Zm-19.543-9.666c-1.014.737-6.247 6.848-6.417 7.532.53-.824 1.372-1.352 1.962-2.117 1.019-1.322 2.149-2.543 3.292-3.757.445-.47 1.031-.869 1.163-1.658Zm29.703 7.89a.238.238 0 0 0-.095.267c.181 1.303.248 2.628.64 3.89.267.861.662 1.68 1.406 2.261.091.072.229.22.349.09.119-.129-.046-.234-.12-.334-.643-.868-1.167-1.79-1.322-2.881-.163-1.122-.658-2.156-.857-3.291l-.001-.002Zm17.726-14.186c-.201-.5-.366-.801-.669-1.062-1.56-1.341-3.277-2.383-5.352-2.719-.142-.023-.348-.084-.402.078-.065.184.16.21.278.285.413.261.91.165 1.352.321 1.157.411 2.191 1.034 3.202 1.718.55.374.932.94 1.591 1.38ZM237.872 2.947c1.499-2.047 2.182-4.417 3.294-6.577-.349.3-.545.693-.763 1.075-.387.679-.524 1.475-1.004 2.104-.381.492-.65 1.046-.925 1.596a1.81 1.81 0 0 1-.424.608c-.387.314-.422.685-.178 1.191v.003ZM224.586.286c.157-.11.143-.234.148-.346.076-1.611-.094-3.223-.012-4.835.011-.218-.024-.553-.301-.546-.215.007-.219.336-.259.542a3.06 3.06 0 0 0-.021.448c-.053 1.237.22 2.453.228 3.687-.004.361.07.72.217 1.05Zm9.5 3.443a1.46 1.46 0 0 0 .562-.739c.324-1.102.963-2.039 1.556-3 .331-.538.685-1.063 1.009-1.603.081-.136.28-.349.051-.47-.201-.107-.249.155-.323.29a12.214 12.214 0 0 1-1.325 1.996c-.857 1.02-1.254 2.241-1.53 3.526Zm-32.733 33.458c-.366 0-.364 0-.703.163-1.279.61-2.612 1.002-4.045.968a7.19 7.19 0 0 0-1.397.1c-.709.12-1.854.71-2.1 1.102.068-.007.135-.019.201-.037.096-.029.188-.07.273-.122.915-.618 1.96-.774 3.014-.733 1.325.05 2.532-.375 3.74-.794.388-.128.737-.35 1.017-.647Zm.66 13.039c.654-.236 4.986-4.902 5.142-5.528-.542 0-.785.41-1.04.756-.803 1.102-1.79 2.047-2.611 3.131-.441.578-1.093.973-1.491 1.64Zm9.596-55.576c-.164-.208-.342-.401-.49-.623-.92-1.358-1.745-2.757-1.87-4.45-.011-.144-.043-.343-.231-.33-.166.012-.131.2-.142.33a1.485 1.485 0 0 0 0 .25c.193 2.014 1.241 3.556 2.733 4.823Zm-5.61 14.366a.92.92 0 0 0-.288-.388 29.739 29.739 0 0 1-3.176-2.979c-.132-.14-.319-.438-.502-.254-.163.161.09.394.249.527 1.105.924 2.009 2.044 3.041 3.043.119.116.228.252.41.27.145.017.269-.017.266-.219Zm32.747-5.246c1.299-1.588 2.009-3.49 2.889-5.303-1.1 1.695-2.169 3.405-2.889 5.303Zm-43.61 11.516-.11.273c1.522 1.334 3.254 2.06 5.392 1.625-1.856-.364-3.822-.424-5.282-1.899Zm-.767 24.817c.552-.124.97-.401 1.436-.377 1.474.076 2.892-.166 4.284-.633.621-.209 1.159-.54 1.728-.966-.392.03-.381.054-.747.23-1.105.527-2.229.957-3.487.973-.903.025-1.8.164-2.668.415a.877.877 0 0 0-.546.358ZM212.01-4.925c-.152.222-.065.341.01.443 1.063 1.442 1.297 3.1 1.277 4.827-.021.388.063.775.244 1.12.056-.301.289-.573.172-.868-.332-.83-.223-1.709-.315-2.563-.122-1.15-.701-2.04-1.388-2.96Zm25.715 58.023c-.276-.934-.553-1.944-1.022-2.884-.13-.261-.209-.747-.561-.622-.201.072.039.536.14.81.34.93.953 1.766.953 2.816 0 .166.062.426.28.411.249-.017.148-.283.21-.53Zm7.72-7.865c-.393-.596-.685-1.249-1.182-1.763-.465-.48-.703-1.139-1.212-1.582-.14-.122-.334-.244-.495-.1-.201.186.026.326.133.453.684.818 1.368 1.636 2.068 2.44.188.217.365.465.688.552Zm-2.473-33.235c.286-.066.315-.228.384-.355.379-.701.759-1.393 1.36-1.954a3.79 3.79 0 0 0 1.15-2.076c-1.022 1.392-2.301 2.612-2.894 4.385Zm1.306-6.067c-.626 1.06-1.567 1.764-2.242 2.7-.209.289-.491.5-.703.78-.096.128-.15.283-.024.41.155.156.27.008.379-.093.037-.033.065-.076.101-.112.927-.963 1.56-2.149 2.41-3.171.079-.1.199-.23.075-.514h.004Zm-42.057 33.195a24.81 24.81 0 0 1-5.359 1.47c1.143.345 4.716-.624 5.359-1.47ZM235.237 4.04c-.012.127-.056.244.06.295.117.05.19-.051.233-.136.096-.175.173-.36.227-.553.149-.675.454-1.28.803-1.865.291-.485.584-.97.873-1.455.041-.07.101-.16.01-.224-.09-.063-.149 0-.206.073a10.015 10.015 0 0 0-1.567 2.575c-.181.426-.296.88-.433 1.29Zm8.066 5.335c.189-.008.244-.112.312-.2.307-.395.622-.784.923-1.183.442-.586.877-1.176 1.306-1.77.092-.128.27-.312.118-.436-.201-.164-.327.1-.423.218a49.217 49.217 0 0 0-1.688 2.232c-.228.332-.356.735-.548 1.14v-.001Zm9.749 20.917-.016-.088c-.264-.034-.527-.074-.792-.1-1.306-.133-2.633-.11-3.94-.292-.352-.049-.739.084-1.027-.258-.092-.11-.171 0-.207.107-.094.279.086.478.384.47.603-.017 1.234-.1 1.819.007.98.187 1.962.043 2.936.151.281.017.562.018.843.003Zm4.872-5.445c2.041.149 3.958-.158 5.882-.241-.301-.237-5.494-.035-5.883.24l.001.001ZM214.392-1.996c-.101 1.45.401 4.614.803 4.947-.174-1.7-.32-3.348-.803-4.947Zm36.33 19.399c-.101-.158-.228-.113-.335-.12-1.533-.115-2.812.383-3.806 1.572-.08.1-.254.2-.125.323.128.123.244-.05.319-.14.703-.835 1.677-1.15 2.681-1.435.413-.117.845-.07 1.266-.2Zm-57.186 10.771c.461.021.811.161 1.185.092a5.903 5.903 0 0 1 1.792-.01c.53.07 1.067.065 1.595-.018.1-.017.275-.014.273-.162 0-.183-.182-.159-.308-.17a3.576 3.576 0 0 0-.401 0l-3.487.1a1.16 1.16 0 0 0-.649.168Zm3.39-10.22a.225.225 0 0 0 .136.238c.627.313 1.27.59 1.972.677.232.02.466.015.697-.017.174-.018.333-.109.34-.306.007-.227-.184-.258-.351-.262a3.815 3.815 0 0 0-.797.032c-.546.105-1.054.083-1.529-.249-.123-.086-.272-.204-.468-.113Zm19.725-22.029c-.208.227-.141.401-.142.552 0 1.035.377 2.027.344 3.07-.009.301.162.494.426.732-.208-1.443-.278-2.88-.628-4.354Zm34.027 32.825c-.905-.158-1.755-.375-2.641-.2a.52.52 0 0 1-.418-.12c-.115-.084-.244-.137-.355 0a.459.459 0 0 0-.108.222.452.452 0 0 0 .021.247c.074.2.215.061.335.047.247-.03.496-.047.745-.052.797-.014 1.597.054 2.421-.144Zm-57.63 14.068a17.201 17.201 0 0 0-4.361 2.605c1.51-.773 2.898-1.75 4.361-2.605Zm19.101 11.4c-1.005.482-1.626 2.034-1.293 3.122.142-1.11.82-1.997 1.293-3.123Zm37.941-22.923a.62.62 0 0 0-.226-.064c-.794.1-1.593.041-2.388.086a.868.868 0 0 0-.463.168c-.084.062-.148.14-.1.253a.192.192 0 0 0 .209.1c1.001-.092 1.999-.198 2.968-.543ZM229.521-8.256c-.361 1.677-.764 3.35-.709 5.085.094-1.714.815-3.34.709-5.085Zm-15.242 57.458c-.201.095-.187.245-.175.368.059.59-.122 1.114-.401 1.621-.177.322-.323.66-.478.993-.1.208-.18.42 0 .758.64-1.225 1.289-2.336 1.054-3.74Zm42.779-20.28c-1.671-.176-3.339-.288-5.011-.128 1.67.145 3.341.263 5.012.128h-.001ZM202.563 7.948a.181.181 0 0 0 .001.115.19.19 0 0 0 .069.092c.425.318.677.763.933 1.21.201.327.458.615.759.851.116.1.272.188.402.072.168-.144 0-.26-.079-.377-.534-.748-1.357-1.218-1.9-1.958a.129.129 0 0 0-.142-.033.117.117 0 0 0-.043.028Zm13.14 45.009.1.081c.075-.026.147-.062.214-.105.784-.651.754-1.656 1.08-2.505a.182.182 0 0 0-.081-.156c-.13-.036-.172.086-.2.171-.128.41-.222.826-.45 1.202-.252.417-.444.87-.663 1.309v.003ZM201.074 4.372c-1.013-1.367-2.253-2.514-3.497-3.657 1.106 1.276 2.323 2.447 3.497 3.657Zm44.318 24.797c-.564.922-.741 2.161-.43 3.039.244-1.06.42-2.038.43-3.04Zm-43.47-19.831c.35.688.636 1.382 1.354 1.753.084.043.187.133.273.058.123-.106.017-.222-.051-.3-.417-.501-.84-.987-1.266-1.476-.054-.068-.136-.102-.31-.035Zm-2.064 6.722c.167 0 .336.011.503 0 .134-.012.358.034.339-.172-.015-.16-.22-.111-.342-.088-1.126.215-2.141-.148-3.141-.593-.101-.044-.224-.169-.296-.015-.061.132.094.189.194.246.852.476 1.794.57 2.743.621v.001Zm1.466-9.506c-.402-.85-1.054-1.47-1.817-1.994a4.618 4.618 0 0 0 1.817 1.994Zm53.086 10.174.059.144c1.04-.158 1.958-.649 2.883-1.119a.129.129 0 0 0 .041-.028.12.12 0 0 0 .025-.043.12.12 0 0 0 .006-.05.131.131 0 0 0-.016-.048c-.076-.1-.176-.057-.267-.014-.421.2-.828.42-1.271.573-.495.171-.975.388-1.46.585Zm-55.336 35.164-.141-.123c-.694.928-1.666 1.614-2.282 2.612l.181.158 2.242-2.647Z"/><path d="M190.685 15.865c.467.368 1.073.349 1.595.567.214.09.388.192.474.409.063.161.081.33-.034.476-.116.145-.276.074-.417.037-1.628-.43-3.28-.774-4.846-1.415a.251.251 0 0 0-.094-.032c-1.348.066-2.423-.801-3.676-1.067a1.736 1.736 0 0 1-.983-.566c-.239-.28-.138-.548.225-.607.419-.068.795.1 1.162.25 1.249.514 2.542.917 3.862 1.203.405.1.802.234 1.185.4.49.216 1.018.334 1.553.346h-.006ZM190.208-1.164c.434-.007.703.149.893.381.746.933 1.78 1.544 2.612 2.376.517.517 1.005 1.067 1.491 1.61.125.14.224.315.072.493-.172.2-.37.116-.536-.008-1.708-1.273-3.386-2.576-4.722-4.262-.1-.129-.259-.244-.155-.433a.346.346 0 0 1 .345-.157ZM260.265 19.887c-.419-.011-.836-.014-1.244.11-.248.075-.477.067-.566-.231-.09-.299.056-.482.307-.607a.594.594 0 0 1 .239-.07c1.143-.029 2.226-.441 3.36-.525.375-.027.703-.2 1.038-.357.226-.111.481-.151.73-.114.301.048.544.187.584.524.036.315-.155.485-.416.614a3.89 3.89 0 0 1-1.395.373c-.879.08-1.742.322-2.637.283ZM260.044 39.907c.615-.01 1.062.457 1.64.577.436.09.848.3 1.272.45.204.076.391.191.549.34.19.175.27.396.167.633-.117.267-.364.337-.63.29a2.52 2.52 0 0 1-.572-.175c-.853-.378-1.701-.768-2.551-1.153-.03-.014-.061-.026-.09-.042-.254-.14-.543-.294-.458-.63.084-.338.407-.285.673-.29ZM189.266-.236c.252.051.513.077.667.309.621.933 1.57 1.523 2.367 2.272.072.068.16.12.229.193.182.194.224.422.055.632-.169.21-.402.2-.63.064-.449-.268-.772-.681-1.175-1.002-.557-.449-1.095-.92-1.637-1.387a.82.82 0 0 1-.316-.654c.01-.27.154-.437.44-.427ZM254.48 55.351c-.162-.878-.86-1.313-1.498-1.791-.301-.228-.491-.502-.502-.878-.006-.323.133-.48.471-.342.111.038.216.092.312.16a12.955 12.955 0 0 1 2.11 2.033.673.673 0 0 1-.02.844c-.186.243-.417.121-.636.024a1.317 1.317 0 0 0-.243-.056l.006.006ZM186.07 6.246c.084.019.275 0 .366.091.589.566 1.383.793 2.034 1.249.27.188.665.393.444.77-.21.358-.637.15-.904.02-.82-.402-1.529-1.003-2.349-1.418a.369.369 0 0 1-.211-.462c.095-.25.338-.236.62-.25ZM193.304 3.59c.703.312 1.425.728 1.899 1.474a.342.342 0 0 1-.062.456c-.151.148-.301.079-.446-.03-.552-.42-1.046-.915-1.655-1.266a.388.388 0 0 1-.201-.47c.062-.175.212-.193.465-.164ZM181.768 22.571c-.279-.075-.684-.067-.703-.469-.013-.294.268-.439.574-.425.305.015.65.066.665.447.011.28-.237.414-.536.447Z"/><path fill-rule="evenodd" clip-rule="evenodd" d="M239.316 22.11c.782-.253.895-.404.904-1.217.024-.525-.215-.88-.614-1.234-.455-.41-.978-.69-1.501-.97a13.882 13.882 0 0 1-.793-.447 4.921 4.921 0 0 0-2.597-.766l-.401-.005c-.984-.017-1.97-.033-2.904.392-.18.082-.369.147-.557.212l-.099.034a.24.24 0 0 1-.306-.125.134.134 0 0 1-.006-.062.142.142 0 0 1 .02-.06.155.155 0 0 1 .043-.046c.203-.145.39-.317.577-.49.505-.467 1.011-.934 1.834-.847.579.061 1.11-.002 1.529-.528.302-.38.762-.212.853.267.073.387.356.535.658.406.319-.136.566-.193.867.007a.54.54 0 0 0 .391.021c.435-.119.817-.034 1.199.194.207.108.429.186.66.23l.048.012c.227.057.48.12.617-.16a.699.699 0 0 0-.12-.792c-1.108-1.323-2.571-2.099-4.17-2.633-.53-.177-1.1-.332-1.671-.284-1.722.144-3.377.47-4.822 1.558-1.283.964-2.341 2.048-2.89 3.593a14.86 14.86 0 0 0-.816 4.556c-.045 1.476.067 2.947.178 4.416l.036.48c.052.689.124 1.393 1.062 1.58.407.076.664.48.624.977-.034.417-.334.433-.608.448a2.876 2.876 0 0 0-1.88.828c-.402.384-.876.512-1.47.267-.457-.191-.861-.466-1.264-.74-.424-.288-.846-.575-1.328-.763-.403-.158-.446-.46-.272-.817.138-.25.204-.534.188-.819a.57.57 0 0 0-.444-.541c-.248-.073-.408.06-.549.248-.298.423-.52.894-.655 1.394-.208.675-.069 1.188.489 1.635.211.169.42.34.628.512.541.443 1.081.885 1.647 1.291.528.378.82.805.729 1.464a.89.89 0 0 0 .065.392c.138.41.444.492.772.215.26-.218.357-.504.383-.837a.426.426 0 0 1 .04-.172.425.425 0 0 1 .257-.23.436.436 0 0 1 .175-.022c.28-.001.291.218.301.417v.007c.011.167.058.33.138.477l.042.086c.097.202.197.412.48.352.304-.066.478-.294.532-.6.007-.045.01-.091.012-.137.002-.038.004-.076.009-.113.068-.501.243-.872.84-.949.541-.07 1.044-.318 1.316-.819.218-.404.553-.587.949-.754.695-.294 1.245-.758 1.327-1.56.079-.785-.222-1.402-.874-1.903a3.055 3.055 0 0 1-1.005-1.403c-.184-.492-.136-.971-.089-1.45.024-.243.049-.486.042-.73-.036-1.39.301-2.67 1.125-3.808.281-.387.568-.466.985-.227.338.192.568.485.798.777l.083.105c.962 1.213 2.694 1.612 4.018.647a1.42 1.42 0 0 1 .345-.2c.668-.235 1.001-.719 1.112-1.403.135-.826.148-.824.895-.474.76.357.832.583.402 1.293-.109.179-.198.367-.064.559.152.217.382.173.594.108.165-.051.327-.108.489-.165.154-.053.307-.107.462-.156Zm-6.426-1.522c.411 0 .744-.269.744-.6 0-.333-.333-.602-.744-.602-.41 0-.744.269-.744.601 0 .332.334.601.744.601ZM214.614 17.122c.25.168.501.338.787.457-.288-.113-.583-.113-.876-.114-.222 0-.443 0-.659-.049a3.307 3.307 0 0 0-1.592.07c-.407.109-.822.16-1.237.21-.325.04-.65.08-.973.149-.921.194-1.767.502-2.511 1.058-1.098.822-1.102 1.426-.051 2.305l.003.002c.024.02.049.041.075.06.449.321.701.243.781-.31.079-.553.456-.794.927-.929.39-.112.572.053.523.462-.024.242-.041.492.101.679.518.68 1.074 1.332 1.968 1.532.165.037.346.051.525.065.335.026.665.052.881.224.573.455 1.123.39 1.737.3a.73.73 0 0 1 .443.044c.65.383 1.244.182 1.862-.094.305-.139.592-.301.879-.464.147-.083.295-.167.445-.247.732-.39.944-1.128.431-1.785-.175-.222-.331-.46-.487-.697-.383-.583-.766-1.166-1.422-1.513-.096-.05-.222-.136-.121-.273.073-.1.185-.048.274 0 .094.05.19.098.285.147.602.309 1.202.616 1.614 1.198l.123.185c.166.252.338.514.58.638.424.22.509.511.502.922-.005.33.184.56.508.571.325.01.413-.256.494-.532.137-.466.072-.924.008-1.381-.049-.346-.098-.692-.06-1.04.011-.098-.076-.223-.148-.31-.222-.263-.389-.56-.556-.857a12.487 12.487 0 0 0-.239-.413c-.078-.127-.141-.262-.205-.397-.114-.242-.228-.485-.426-.678l-.107-.104c-.641-.625-1.274-1.242-2.115-1.648a11.93 11.93 0 0 0-4.465-1.202c-1.95-.124-3.699.545-5.412 1.392-.338.166-.622.402-.904.636-.316.261-.63.522-1.017.684-.165.07-.259.242-.35.41a2.53 2.53 0 0 1-.077.137.33.33 0 0 0-.061.213.334.334 0 0 0 .09.202c.116.135.254.234.437.17.14-.056.276-.12.408-.19.205-.095.406-.196.608-.298.515-.259 1.03-.517 1.59-.67l.071-.02c.375-.101.734-.199 1.07-.446.324-.237.841-.258 1.142-.018.372.303.747.302 1.146.301h1.203c.159.002.331.003.341.236.015.336.245.483.518.608.245.112.467.261.691.412Zm1.374 3.647c.153-.6.38-.76 1.042-.76.35-.003.621.337.411.59-.089.108-.177.218-.265.329-.391.493-.786.99-1.347 1.317-.116.07-.296.167-.418.046-.127-.127-.04-.237.041-.34a.83.83 0 0 0 .066-.091c.207-.34.365-.707.47-1.091Zm-3.582-.346c.418 0 .756-.273.756-.61 0-.338-.338-.611-.756-.611-.417 0-.755.273-.755.61 0 .338.338.611.755.611Z"/><path d="M225.874 42.518a1.66 1.66 0 0 1-.66-.111c-.589-.228-1.16-.511-1.815-.54a1.296 1.296 0 0 1-.602-.22 8.656 8.656 0 0 0-3.725-1.355c-.689-.08-1.332-.322-1.847-.821a1.222 1.222 0 0 0-.895-.375c-.431 0-.644-.271-.62-.683a4.4 4.4 0 0 1 .402-1.645c.207-.435.658-.48.964-.108a.561.561 0 0 0 .029.04c.258.253.143.787.588.873.549.105 1.096-.046 1.635-.15.539-.105 1.005-.363 1.469-.63.388-.224.831-.328 1.195-.614a.904.904 0 0 1 .723-.128c.663.126 1.294.267 2.009.091 1.06-.261 1.985.219 2.828.85.511.384 1.067.667 1.726.73.627.058 1.045-.192 1.371-.712.368-.587.539-.58.99-.026.064.077.132.151.192.231.617.83.302 1.716-.71 1.838a2.888 2.888 0 0 0-1.499.592c-.473.369-1.134.28-1.624.63-.339.242-.703.442-1.043.686-.294.213-.214.579-.277.878-.106.463-.326.727-.804.679Zm1.167-3.115a.91.91 0 0 0-.716-.061c-1.075.286-2.148.2-3.224.017-.475-.08-.949-.17-1.426-.235-.156-.02-.396-.049-.434.145-.045.226.207.213.355.257.272.08.529.194.791.3.935.373 1.88.692 2.892.19a3.706 3.706 0 0 1 1.151-.329c.204-.028.438-.038.611-.282v-.002ZM223.532 42.803c1.135.064 2.062.133 2.934.52.278.112.529.283.735.501.464.52.424.997-.122 1.474-.302.267-.862.121-1.221-.33a1.043 1.043 0 0 1-.221-.387c-.139-.623-.592-.802-1.149-.846a4.22 4.22 0 0 0-2.015.267 3.4 3.4 0 0 1-.721.2c-.228.04-.493.07-.592-.224a.5.5 0 0 1 .128-.559.498.498 0 0 1 .173-.103 4.87 4.87 0 0 1 1.034-.36c.402-.08.815-.18 1.037-.153ZM244.092 27.124c-.116.68-.026 1.303 0 1.904.061 1.287-.54 2.433-.593 3.68-.012.25-.121.549-.424.53-.304-.02-.329-.352-.333-.59a2.029 2.029 0 0 1 .113-.787c.309-.765.401-1.581.609-2.368.173-.641-.123-1.287-.049-1.938.034-.3 0-.601.014-.902.007-.172.059-.356.256-.381.197-.025.276.163.316.324.05.198.07.397.091.528ZM242.022 29.884c-.231-1.623.18-3.219.211-4.83 0-.16 0-.4.176-.428.22-.035.188.222.241.365.226.616.076 1.253.115 1.877.056.902.024 1.803.061 2.697.021.478-.122.922-.22 1.377-.036.17-.109.337-.321.315-.212-.022-.254-.2-.26-.372-.011-.334-.003-.668-.003-1.001ZM242.42 32.347c.033.338-.029.68-.179.986a84.529 84.529 0 0 0-.992 2.34 1.395 1.395 0 0 1-.334.488c-.159.151-.332.333-.563.182-.231-.152-.181-.417-.079-.59.716-1.21 1.105-2.556 1.614-3.848.055-.14.139-.287.328-.244.189.043.194.21.201.359.011.133.004.267.004.327ZM241.118 31.788a5.432 5.432 0 0 1-.762 2.676c-.165.275-.401.415-.715.256-.333-.168-.242-.442-.109-.685.354-.652.511-1.37.713-2.072l.066-.24c.072-.265.223-.485.513-.456.355.036.275.353.294.52ZM231.777 45.524c-.216 0-.431.037-.635.108-.284.095-.502-.05-.612-.29-.109-.242.053-.414.243-.538.553-.355 1.197-.467 1.808-.65.177-.053.325.047.402.22.087.193-.016.31-.173.407-.364.226-.766.401-1.042.748l.009-.005ZM236.248 40.706c-.174 0-.301-.02-.381-.152-.087-.15-.037-.293.055-.418a4.61 4.61 0 0 1 .843-.913c.205-.168.395-.353.567-.555a.33.33 0 0 1 .235-.131.335.335 0 0 1 .257.083c.147.113.223.294.114.44-.437.582-.885 1.158-1.485 1.59a.552.552 0 0 1-.205.056Z"/></g><defs><clipPath id="aa"><path d="M179 0h67c8.284 0 15 6.716 15 15v24c0 8.284-6.716 15-15 15h-67V0Z" fill="#fff"/></clipPath></defs></symbol></svg>